{"glyphs":{":":{"x_min":0,"x_max":255,"ha":255,"o":"m 55 64 q 55 93 76 114 q 98 136 128 136 q 159 136 180 114 q 201 91 201 62 q 201 33 180 11 q 159 -11 129 -11 q 98 -11 76 11 q 55 33 55 64 z m 55 350 q 55 379 76 400 q 98 421 128 421 q 159 421 180 398 q 201 376 201 347 q 201 318 180 296 q 159 274 129 274 q 98 274 76 296 q 55 319 55 350 z"},"$":{"x_min":0,"x_max":505,"ha":505,"o":"m 259 626 q 268 626 277 626 l 281 652 q 287 652 303 651 q 319 650 319 645 l 315 621 q 340 618 364 612 q 389 606 416 600 q 420 563 422 525 q 424 487 426 444 q 422 439 416 439 q 416 439 414 439 q 410 439 400 440 q 389 440 388 445 q 385 466 374 491 q 364 516 348 539 q 331 562 308 575 l 276 382 q 287 374 298 367 q 309 360 319 353 q 342 338 366 324 q 391 309 412 290 q 432 270 444 240 q 457 210 457 163 q 457 111 428 72 q 398 34 352 12 q 305 -10 253 -10 q 235 -10 213 -8 l 208 -39 q 201 -39 186 -37 q 170 -35 170 -30 l 174 -4 q 149 0 124 5 q 98 10 75 15 q 70 36 66 68 q 61 101 58 131 q 54 161 53 174 q 56 179 66 183 q 76 187 80 187 q 91 187 92 179 q 95 160 107 135 q 119 110 138 86 q 157 62 183 47 l 217 261 q 212 265 206 268 q 201 272 196 275 q 162 298 131 321 q 100 344 80 376 q 60 408 60 457 q 60 506 90 544 q 119 582 165 604 q 211 626 259 626 z m 253 237 l 219 32 q 231 29 243 29 q 261 29 282 36 q 303 44 318 64 q 334 84 334 121 q 334 157 308 186 q 283 215 253 237 z m 242 410 l 270 587 q 267 587 264 587 q 246 587 228 580 q 209 572 196 554 q 184 537 184 506 q 184 481 200 456 q 217 432 242 410 z"},"?":{"x_min":0,"x_max":389,"ha":389,"o":"m 113 506 q 85 506 69 526 q 53 546 53 570 q 53 583 58 597 q 62 611 67 615 q 78 621 98 626 q 119 632 155 632 q 168 632 192 627 q 217 622 245 610 q 273 599 298 580 q 323 560 340 530 q 356 501 356 460 q 356 417 336 390 q 316 362 288 344 q 259 325 233 309 q 214 296 190 282 q 166 268 153 250 q 149 244 148 234 q 148 223 148 215 q 148 211 148 209 q 147 205 142 198 q 138 191 134 191 q 128 191 121 196 q 114 200 111 203 q 106 215 99 244 q 92 272 92 301 q 92 330 104 350 q 116 371 134 386 q 153 401 170 412 q 195 428 218 447 q 242 466 258 485 q 273 504 273 520 q 273 536 260 551 q 247 566 221 566 q 204 566 186 551 q 169 536 152 521 q 134 506 113 506 z m 65 64 q 65 95 86 116 q 108 136 136 136 q 167 136 188 115 q 209 94 209 64 q 209 34 189 12 q 169 -11 140 -11 q 113 -11 89 10 q 65 31 65 64 z"},"<":{"x_min":0,"x_max":483,"ha":483,"o":"m 434 44 q 434 41 432 26 q 429 12 425 -2 q 421 -15 418 -15 q 417 -15 413 -13 l 47 173 q 36 179 32 189 q 29 199 29 212 q 29 220 34 226 q 40 231 47 235 l 411 418 q 415 420 416 420 q 422 420 433 364 q 434 360 432 358 q 430 355 430 355 l 119 204 l 431 50 q 431 50 432 49 q 434 48 434 44 z"},"'":{"x_min":0,"x_max":176,"ha":176,"o":"m 104 694 q 116 694 126 689 q 136 684 141 673 q 137 627 132 568 q 127 509 118 459 q 115 455 108 449 q 101 443 93 440 q 86 440 81 446 q 65 489 48 534 q 32 578 32 612 q 32 644 52 669 q 73 694 104 694 z"},"=":{"x_min":0,"x_max":545,"ha":545,"o":"m 465 271 l 69 271 q 63 271 64 284 q 66 298 72 312 q 78 327 85 329 l 478 329 q 485 329 484 316 q 483 303 478 289 q 472 275 465 271 z m 465 131 l 69 131 q 63 131 64 144 q 66 157 72 172 q 78 186 85 188 l 478 188 q 485 188 484 175 q 483 162 478 148 q 472 135 465 131 z"},"a":{"x_min":0,"x_max":477,"ha":477,"o":"m 311 438 q 337 438 368 432 q 400 426 415 421 l 354 129 q 353 126 352 114 q 351 101 351 97 q 351 90 354 83 q 357 76 364 76 q 375 76 391 90 q 407 104 420 118 q 433 133 434 136 q 439 136 443 125 q 447 114 447 109 q 441 97 424 78 q 406 59 383 39 q 360 19 336 6 q 312 -8 292 -8 q 267 -8 249 8 q 231 25 231 57 q 231 60 232 65 q 232 70 233 75 q 234 81 235 86 q 236 91 237 94 q 227 76 204 52 q 182 28 154 10 q 125 -7 95 -7 q 54 -7 32 28 q 11 63 11 112 q 11 178 40 236 q 69 295 114 340 q 160 386 212 412 q 265 438 311 438 z m 256 385 q 231 385 209 364 q 187 344 170 310 q 153 275 144 233 q 134 191 134 148 q 134 113 144 96 q 153 79 169 79 q 186 79 206 108 q 225 136 243 181 q 261 226 271 274 l 290 373 q 280 385 256 385 z"},"L":{"x_min":0,"x_max":534,"ha":534,"o":"m 212 138 q 212 137 211 134 q 209 123 205 98 q 201 74 204 61 q 206 51 224 46 q 242 41 259 41 l 319 41 q 345 41 368 49 q 391 57 410 73 q 442 103 477 166 q 480 172 491 172 q 498 172 507 170 q 516 168 517 166 q 504 140 488 109 q 472 78 458 49 q 444 20 436 -2 l 121 -2 q 73 -2 38 -2 q 2 -3 -8 -3 q -10 2 -8 15 q -5 28 -1 33 q 5 34 18 36 q 32 37 45 40 q 58 44 61 50 q 69 65 74 88 q 79 111 85 142 l 155 501 q 156 505 156 509 q 157 513 158 517 q 163 542 166 561 q 169 580 166 593 q 165 600 154 604 q 143 607 130 608 q 117 610 111 610 q 109 615 112 628 q 114 642 118 646 q 144 643 182 642 q 219 640 247 640 q 276 640 312 642 q 349 643 376 646 q 378 642 376 628 q 374 615 369 610 q 363 610 350 608 q 336 607 324 604 q 312 600 308 593 q 300 578 294 556 q 288 533 282 501 z"},"3":{"x_min":0,"x_max":532,"ha":532,"o":"m 281 627 q 299 627 324 621 q 348 615 372 601 q 397 587 413 563 q 429 539 429 502 q 429 471 416 447 q 403 423 384 406 q 366 388 348 378 q 331 367 322 363 q 334 362 358 355 q 381 348 406 332 q 432 316 450 288 q 468 259 468 215 q 468 163 445 122 q 422 81 384 52 q 346 24 300 9 q 254 -6 207 -6 q 160 -6 126 6 q 91 18 76 30 q 71 37 68 51 q 64 65 64 72 q 64 89 77 106 q 90 124 115 124 q 135 124 150 108 q 166 92 178 78 q 192 62 210 48 q 227 35 246 35 q 292 35 315 72 q 338 108 338 174 q 338 211 325 242 q 312 274 288 294 q 265 314 232 314 q 228 314 212 312 q 197 311 178 306 q 170 316 170 329 q 170 330 170 333 q 169 336 170 338 q 198 343 232 356 q 265 368 290 390 q 314 413 314 447 q 314 492 290 524 q 267 555 223 555 q 197 555 174 544 q 150 533 134 520 q 119 508 115 504 q 110 506 107 515 q 104 524 104 531 q 131 567 177 597 q 223 627 281 627 z"},";":{"x_min":0,"x_max":248,"ha":248,"o":"m 136 136 q 149 136 160 131 q 171 126 179 120 q 192 96 192 57 q 192 11 173 -31 q 154 -73 124 -104 q 93 -136 59 -153 q 51 -151 44 -142 q 38 -134 38 -130 q 48 -124 64 -108 q 80 -93 94 -72 q 107 -50 107 -26 q 107 -14 100 -6 q 93 1 84 8 q 75 16 68 29 q 61 42 61 66 q 61 74 67 91 q 73 108 90 122 q 106 136 136 136 z m 48 351 q 48 380 70 401 q 92 422 122 422 q 151 422 171 401 q 191 380 191 351 q 191 322 172 298 q 152 274 122 274 q 91 274 70 298 q 48 322 48 351 z"},"J":{"x_min":0,"x_max":328,"ha":328,"o":"m 241 640 q 270 640 306 642 q 343 643 370 646 q 372 642 370 628 q 368 615 363 610 q 357 610 344 608 q 330 607 318 604 q 306 600 302 593 q 294 578 288 556 q 282 533 276 501 l 206 140 q 193 73 164 20 q 135 -34 98 -75 q 61 -116 23 -145 q -15 -174 -47 -191 q -79 -208 -96 -213 q -100 -211 -103 -205 q -106 -199 -106 -195 q -106 -191 -104 -189 q -28 -148 14 -68 q 55 11 78 132 l 149 501 q 150 505 150 509 q 151 513 152 517 q 157 542 160 561 q 163 580 160 593 q 159 600 148 604 q 137 607 124 608 q 111 610 105 610 q 103 615 106 628 q 108 642 112 646 q 138 643 176 642 q 213 640 241 640 z"},"V":{"x_min":0,"x_max":612,"ha":612,"o":"m 192 640 q 221 640 258 642 q 295 643 322 646 q 324 642 322 628 q 319 615 314 610 q 308 610 294 608 q 281 607 269 602 q 257 596 254 584 q 252 572 255 552 q 258 531 262 511 q 270 472 280 428 q 289 383 298 340 q 308 296 316 260 q 324 225 328 204 q 333 182 333 182 q 333 182 345 204 q 357 226 376 260 q 396 295 418 335 q 441 375 462 412 q 483 450 498 476 q 512 502 516 509 q 526 528 538 550 q 549 571 552 587 q 553 596 540 600 q 526 605 509 607 q 492 609 485 610 q 484 610 483 610 q 481 615 484 628 q 487 642 491 646 q 523 643 544 642 q 566 640 597 640 q 627 640 650 642 q 672 645 700 646 q 702 642 700 628 q 698 615 693 610 q 687 610 674 609 q 661 608 648 604 q 634 601 627 593 q 614 578 600 557 q 587 536 573 512 q 531 439 496 379 q 462 319 430 265 q 398 211 364 154 q 331 97 292 29 q 284 16 266 2 q 248 -11 240 -11 q 234 -11 233 -6 q 232 -2 230 3 l 129 498 q 125 519 120 541 q 115 563 112 578 q 109 591 98 598 q 87 604 74 607 q 62 610 56 610 q 54 615 57 628 q 60 642 64 646 q 90 643 127 642 q 164 640 192 640 z"},"\"":{"x_min":0,"x_max":323,"ha":323,"o":"m 252 684 q 270 684 282 668 q 282 656 280 628 q 279 600 276 566 q 274 532 272 499 q 269 466 266 443 q 259 430 242 421 q 235 421 232 429 q 214 491 202 535 q 191 579 191 603 q 191 619 198 638 q 206 657 220 670 q 234 684 252 684 z m 96 684 q 114 684 126 668 q 126 656 124 628 q 123 600 120 566 q 118 532 115 499 q 112 466 109 443 q 101 429 86 421 q 79 421 76 429 q 58 491 46 535 q 35 579 35 603 q 35 619 42 638 q 50 657 64 670 q 78 684 96 684 z"},"7":{"x_min":0,"x_max":532,"ha":532,"o":"m 381 622 q 398 622 418 623 q 437 624 452 625 q 466 626 469 626 q 474 626 475 620 q 476 615 476 611 q 476 604 468 590 q 461 576 449 552 l 184 -8 q 181 -10 175 -10 q 169 -11 167 -11 q 164 -11 154 -9 q 143 -7 134 -2 q 124 4 124 13 q 136 31 159 70 q 182 110 212 164 q 241 218 273 280 q 305 341 336 404 q 368 467 395 523 l 169 523 q 145 523 130 510 q 116 497 108 478 q 99 460 92 441 q 91 439 90 438 q 88 437 80 436 q 73 435 66 438 q 60 440 57 443 q 64 467 72 504 q 81 540 89 573 q 97 606 100 621 q 104 621 126 621 q 148 621 180 621 q 212 621 246 622 q 281 622 312 622 q 343 622 362 622 q 381 622 381 622 z"},"S":{"x_min":0,"x_max":482,"ha":482,"o":"m 324 654 q 365 654 398 646 q 432 637 472 627 q 468 588 462 549 q 457 510 450 465 q 444 459 439 459 q 439 459 438 459 q 434 459 424 460 q 413 460 413 466 q 414 487 410 512 q 405 537 394 560 q 383 583 364 598 q 346 613 320 613 q 294 613 266 595 q 237 577 227 528 q 221 498 236 470 q 252 441 278 416 q 304 392 328 372 q 331 370 334 368 q 337 365 340 362 q 364 342 387 318 q 410 295 422 260 q 433 225 423 171 q 413 118 376 77 q 339 36 290 13 q 240 -10 190 -10 q 150 -10 106 -2 q 61 6 22 16 q 22 38 24 72 q 25 106 28 138 q 30 169 32 182 q 36 187 47 191 q 58 195 62 195 q 71 195 71 188 q 70 168 77 142 q 84 115 98 90 q 113 64 136 48 q 158 31 189 31 q 224 31 254 52 q 285 74 295 126 q 301 157 286 185 q 271 213 247 236 q 223 258 203 275 q 200 278 197 280 q 194 283 191 285 q 189 287 184 291 q 157 314 134 338 q 110 363 98 396 q 87 429 97 478 q 107 529 144 568 q 180 608 228 631 q 277 654 324 654 z"},"}":{"x_min":0,"x_max":397,"ha":397,"o":"m 266 153 q 183 105 196 39 q 201 13 229 -62 q 255 -130 253 -201 q 250 -336 169 -399 q 146 -417 134 -402 q 120 -383 137 -366 q 201 -299 198 -225 q 197 -200 164 -145 q 111 -59 129 38 q 144 126 213 166 q 144 206 129 294 q 111 391 164 477 q 197 532 198 557 q 201 631 137 698 q 120 715 134 734 q 146 749 169 731 q 250 668 253 533 q 255 462 229 394 q 201 319 196 293 q 183 227 266 179 z"},"Z":{"x_min":0,"x_max":593,"ha":593,"o":"m 284 596 q 236 596 207 576 q 178 555 160 524 q 143 494 127 463 q 126 461 124 459 q 121 457 114 457 q 107 457 99 458 q 91 460 89 462 q 105 505 123 552 q 141 600 157 646 q 162 645 179 644 q 196 642 216 642 q 237 641 254 640 q 270 640 275 640 l 402 641 q 459 642 508 644 q 557 646 615 650 q 618 649 619 638 q 620 626 618 618 q 617 617 598 592 q 578 567 544 526 q 511 484 470 434 q 428 383 384 329 q 340 275 299 224 q 258 174 225 134 q 192 94 172 70 q 153 46 153 46 l 349 46 q 403 46 442 80 q 459 96 474 114 q 489 133 507 166 q 510 172 520 172 q 527 172 536 170 q 546 168 547 166 q 535 140 520 110 q 504 79 490 50 q 475 22 466 1 q 457 1 419 1 q 381 1 328 1 q 275 1 218 0 q 161 0 111 0 q 61 0 30 0 q -1 0 -1 0 q -10 0 -17 9 q -24 18 -21 21 l 451 596 z"},"x":{"x_min":0,"x_max":499,"ha":499,"o":"m 199 438 q 219 438 230 422 q 242 405 248 384 l 274 290 l 313 366 q 331 400 354 419 q 378 438 407 438 q 425 438 446 432 q 468 427 478 418 q 482 411 486 397 q 489 383 489 371 q 489 352 476 332 q 462 312 436 312 q 419 312 408 322 q 397 332 392 340 q 388 348 382 356 q 375 364 370 364 q 362 364 355 356 q 348 347 339 332 l 288 245 l 327 115 q 332 101 338 88 q 344 76 357 76 q 368 76 384 90 q 400 104 413 118 q 426 133 427 136 q 432 136 436 125 q 440 114 440 109 q 434 97 416 78 q 399 59 376 39 q 352 19 328 6 q 304 -8 284 -8 q 259 -8 246 12 q 233 32 224 57 q 224 59 218 82 q 211 106 200 140 l 162 65 q 144 31 120 12 q 97 -7 68 -7 q 45 -7 30 -2 q 15 3 3 11 q -2 16 -7 29 q -12 42 -12 58 q -12 78 1 99 q 14 120 40 120 q 57 120 68 110 q 79 100 84 92 q 89 85 94 76 q 100 67 105 67 q 113 67 121 74 q 129 81 141 102 l 187 185 l 150 308 q 148 315 140 332 q 133 348 118 348 q 111 348 98 336 q 85 324 74 311 q 64 298 62 295 q 57 295 52 306 q 48 317 48 321 q 55 333 72 352 q 88 372 110 392 q 132 411 156 424 q 179 438 199 438 z"},")":{"x_min":0,"x_max":458,"ha":458,"o":"m 200 167 q 200 393 109 574 q 67 658 26 693 l 38 720 q 79 698 117 664 q 155 631 190 586 q 326 411 326 167 q 326 -78 190 -253 q 155 -298 117 -332 q 79 -365 38 -387 l 26 -360 q 67 -325 109 -241 q 200 -60 200 167 z"},"&":{"x_min":0,"x_max":790,"ha":790,"o":"m 438 523 q 473 523 500 502 q 526 480 526 445 q 526 398 498 364 q 470 330 426 306 q 382 281 334 265 q 285 249 244 240 q 245 152 292 98 q 338 44 414 44 q 460 44 502 61 q 544 78 572 110 q 599 143 599 188 q 599 217 587 229 q 561 219 534 208 q 507 197 490 182 q 472 168 472 146 q 472 135 472 130 q 473 126 474 118 q 471 117 463 120 q 455 124 450 128 q 448 132 442 142 q 437 153 437 172 q 437 209 450 230 q 464 251 492 268 q 520 286 562 311 q 595 331 630 358 q 664 386 688 428 q 711 470 711 533 q 718 534 724 532 q 731 529 735 527 q 752 514 768 485 q 785 456 785 421 q 785 380 766 348 q 747 317 716 294 q 686 271 652 254 q 655 247 658 238 q 660 228 660 217 q 660 167 636 126 q 613 86 574 56 q 534 27 485 11 q 436 -5 384 -5 q 337 -5 290 8 q 243 22 204 49 q 165 76 142 116 q 118 155 118 208 q 87 198 69 186 q 51 173 51 151 q 51 138 56 131 q 61 124 71 115 q 80 107 86 98 q 91 89 91 77 q 91 53 76 38 q 60 24 38 24 q 28 24 22 26 q 15 27 7 29 q -2 44 -6 64 q -10 83 -10 96 q -10 149 22 188 q 55 227 113 246 q 117 247 121 249 q 130 299 158 348 q 186 397 228 436 q 271 476 324 500 q 378 523 438 523 z m 246 284 q 281 296 312 314 q 343 333 362 360 q 382 388 382 427 q 382 448 371 460 q 360 472 346 472 q 318 472 297 444 q 276 417 263 374 q 250 330 246 284 z"},"_":{"x_min":0,"x_max":481,"ha":481,"o":"m 8 -32 q 8 -32 10 -20 q 11 -9 14 2 q 17 13 22 13 l 461 13 q 465 13 465 8 q 465 1 462 -10 q 460 -20 455 -36 q 454 -40 452 -41 q 449 -42 449 -42 l 15 -42 q 15 -42 12 -40 q 8 -39 8 -32 z"},"v":{"x_min":0,"x_max":454,"ha":454,"o":"m 230 109 q 253 126 276 151 q 300 176 316 206 q 332 237 336 260 q 340 284 340 300 q 340 318 328 339 q 317 360 299 375 q 299 393 310 407 q 321 421 336 430 q 352 438 363 438 q 391 438 415 418 q 439 399 439 349 q 439 318 420 280 q 402 242 372 202 q 342 162 306 126 q 270 89 234 60 q 199 30 170 12 q 142 -5 126 -5 q 116 20 108 65 q 99 110 94 167 q 90 224 90 283 l 90 326 q 90 333 88 340 q 87 348 79 348 q 72 348 59 336 q 46 324 35 311 q 24 298 22 295 q 17 295 13 306 q 9 317 9 321 q 16 333 32 352 q 49 372 71 392 q 93 411 116 424 q 140 438 160 438 q 192 438 200 422 q 209 406 209 384 l 209 333 q 209 280 212 230 q 216 181 221 148 q 226 114 230 109 z"},"O":{"x_min":0,"x_max":688,"ha":688,"o":"m 414 651 q 474 651 520 628 q 567 604 598 565 q 630 526 646 478 q 663 431 663 384 q 663 290 628 217 q 593 144 536 94 q 480 43 414 16 q 349 -10 288 -10 q 220 -10 166 26 q 111 63 80 124 q 48 184 48 255 q 48 346 82 419 q 116 492 170 544 q 225 596 290 624 q 354 651 414 651 z m 393 609 q 342 609 304 574 q 266 540 240 484 q 214 428 201 363 q 188 298 188 238 q 188 182 201 135 q 214 88 243 60 q 272 32 318 32 q 368 32 406 66 q 444 100 470 156 q 495 211 508 276 q 522 340 522 400 q 522 456 508 504 q 494 551 466 580 q 437 609 393 609 z"},"(":{"x_min":0,"x_max":458,"ha":458,"o":"m 259 167 q 259 -60 350 -241 q 392 -325 433 -360 l 421 -387 q 380 -365 342 -332 q 304 -298 269 -253 q 133 -78 133 167 q 133 411 269 586 q 304 631 342 664 q 380 698 421 720 l 433 693 q 392 658 350 574 q 259 393 259 167 z"},"C":{"x_min":0,"x_max":630,"ha":630,"o":"m 433 609 q 369 609 314 565 q 259 521 225 443 q 191 365 191 262 q 191 228 199 189 q 207 150 226 115 q 244 80 276 58 q 308 36 356 36 q 391 36 422 48 q 452 60 474 78 q 497 97 516 124 q 535 151 548 173 q 560 195 561 199 q 582 199 591 188 q 590 184 582 162 q 574 140 562 112 q 550 85 540 64 q 529 42 524 39 q 483 17 438 5 q 392 -7 329 -7 q 258 -7 206 18 q 153 42 119 82 q 85 123 68 172 q 51 221 51 270 q 51 362 86 432 q 120 503 177 552 q 234 601 301 626 q 368 651 433 651 q 478 651 531 642 q 584 632 623 623 q 623 619 622 598 q 620 578 618 552 q 615 527 613 507 q 611 487 610 482 q 609 478 603 474 q 597 469 589 469 q 580 469 577 473 q 576 487 570 510 q 563 532 548 555 q 532 578 504 594 q 476 609 433 609 z"},"W":{"x_min":0,"x_max":856,"ha":856,"o":"m 195 640 q 224 640 260 642 q 297 643 324 646 q 326 642 324 628 q 322 615 317 610 q 311 610 297 607 q 283 604 270 596 q 258 589 258 572 q 258 568 260 550 q 261 532 264 511 q 270 466 276 420 q 283 373 288 334 q 294 294 298 270 q 301 245 301 245 q 301 245 312 267 q 324 289 343 325 q 362 361 384 404 q 406 446 428 488 q 449 529 466 562 q 484 594 492 610 q 500 624 510 635 q 521 646 528 646 q 532 646 535 631 q 543 582 553 525 q 563 468 573 412 q 583 356 591 310 q 599 264 604 236 q 609 209 609 209 q 609 209 618 228 q 628 248 644 280 q 659 311 676 348 q 694 384 711 418 q 728 452 740 476 q 752 501 756 509 q 765 528 776 550 q 786 571 789 587 q 790 596 777 600 q 764 605 748 607 q 732 609 724 610 q 723 610 723 610 q 721 615 724 628 q 727 642 731 646 q 763 643 784 642 q 806 640 837 640 q 867 640 890 642 q 913 645 941 646 q 943 642 940 628 q 938 615 933 610 q 927 610 914 609 q 901 608 888 604 q 874 601 867 593 q 854 578 840 558 q 826 538 813 512 q 779 443 750 386 q 721 328 694 274 q 666 220 637 164 q 608 107 573 39 q 563 21 549 5 q 535 -11 527 -11 q 521 -11 518 -6 q 514 -2 512 3 l 441 408 q 441 408 428 384 q 416 360 396 320 q 376 280 351 232 q 326 184 301 134 q 276 85 254 43 q 251 38 243 24 q 235 11 226 0 q 218 -11 212 -11 q 206 -11 203 -6 q 200 -2 198 3 l 130 498 q 128 520 126 533 q 124 546 119 576 q 117 589 104 596 q 92 603 78 606 q 65 610 59 610 q 56 615 59 628 q 62 642 66 646 q 92 643 130 642 q 167 640 195 640 z"},"A":{"x_min":0,"x_max":605,"ha":605,"o":"m 60 131 l 347 609 q 353 619 366 632 q 380 646 387 646 q 393 646 398 644 q 404 642 405 640 l 495 145 q 500 123 502 106 q 504 90 507 74 q 511 54 525 45 q 539 36 554 34 q 568 32 571 32 q 573 25 570 12 q 568 -1 565 -4 q 538 -2 506 1 q 475 4 445 4 q 414 4 372 1 q 331 -2 306 -4 q 304 -1 305 8 q 306 16 309 24 q 312 32 314 32 q 326 32 342 36 q 359 41 370 50 q 381 58 382 66 q 383 69 380 84 q 378 100 374 122 q 370 144 366 166 q 362 187 359 201 q 356 215 356 215 q 356 215 354 217 q 353 219 351 219 q 331 220 314 220 q 296 220 281 220 q 276 220 272 220 q 268 220 264 220 q 236 220 214 220 q 193 220 169 219 q 165 219 162 214 q 162 214 153 199 q 144 184 132 165 q 121 146 113 132 q 103 114 92 92 q 81 70 80 65 q 78 53 92 46 q 107 38 124 35 q 141 32 144 32 q 147 27 144 13 q 140 -1 137 -4 q 114 -1 92 2 q 70 4 40 4 q 9 4 -13 2 q -35 -1 -59 -4 q -61 -1 -60 11 q -58 23 -54 31 q -48 31 -34 36 q -20 40 -6 47 q 9 54 15 62 q 31 82 39 96 q 47 111 60 131 z m 308 465 l 193 273 q 193 273 194 272 q 194 270 195 270 q 209 269 231 268 q 253 267 269 267 q 290 267 306 268 q 321 268 342 269 q 344 269 345 271 q 346 273 346 273 z"},"f":{"x_min":0,"x_max":310,"ha":310,"o":"m 335 679 q 360 679 380 673 q 399 667 407 661 q 411 655 414 647 q 416 639 416 629 q 416 611 406 596 q 396 581 379 581 q 355 581 338 604 q 331 614 324 624 q 316 634 302 634 q 280 634 264 582 q 249 530 226 414 l 323 414 q 326 414 327 410 q 328 406 328 402 q 328 395 324 385 q 321 375 317 369 l 217 369 q 217 369 212 338 q 207 307 198 259 q 190 211 181 157 q 172 103 163 57 q 148 -23 110 -84 q 73 -145 28 -179 q -18 -213 -57 -213 q -82 -213 -102 -207 q -121 -201 -129 -195 q -133 -189 -136 -181 q -138 -173 -138 -163 q -138 -145 -128 -130 q -117 -115 -101 -115 q -78 -115 -60 -139 q -53 -149 -44 -158 q -36 -168 -23 -168 q -4 -168 6 -145 q 17 -122 26 -73 q 35 -24 50 53 l 104 369 l 41 369 q 39 369 39 372 q 39 377 46 387 q 53 397 64 406 q 75 414 86 414 l 112 414 q 124 474 150 523 q 177 572 210 606 q 244 641 278 660 q 311 679 335 679 z"},"Q":{"x_min":0,"x_max":689,"ha":689,"o":"m 415 651 q 475 651 522 628 q 568 604 600 565 q 631 526 648 478 q 664 431 664 384 q 664 306 640 244 q 617 182 578 136 q 538 89 490 58 q 443 27 396 10 q 435 -12 465 -30 q 495 -49 528 -60 q 561 -71 608 -71 q 625 -71 639 -68 q 653 -65 658 -64 q 670 -64 677 -74 q 673 -78 656 -88 q 639 -98 616 -110 q 593 -121 568 -129 q 543 -137 522 -137 q 483 -137 448 -124 q 414 -111 380 -91 q 347 -71 310 -48 q 273 -26 229 -8 q 144 27 96 97 q 49 167 49 255 q 49 346 83 419 q 117 492 172 544 q 226 596 290 624 q 355 651 415 651 z m 394 609 q 343 609 305 574 q 267 540 241 484 q 215 428 202 363 q 189 298 189 238 q 189 182 202 135 q 215 88 244 60 q 273 32 319 32 q 369 32 407 66 q 445 100 470 156 q 496 211 510 276 q 523 340 523 400 q 523 456 509 504 q 495 551 466 580 q 438 609 394 609 z"},"w":{"x_min":0,"x_max":708,"ha":708,"o":"m 447 396 q 447 358 451 312 q 455 267 460 225 q 466 179 472 146 q 478 113 481 109 q 500 120 526 144 q 552 168 571 201 q 587 229 591 254 q 595 279 595 295 q 595 316 584 338 q 572 360 554 375 q 554 393 565 407 q 576 421 592 430 q 607 438 618 438 q 646 438 670 418 q 694 399 694 349 q 694 318 676 280 q 658 242 629 202 q 600 163 564 126 q 529 89 494 60 q 459 30 429 13 q 399 -4 381 -4 q 371 10 364 39 q 356 68 350 100 q 341 150 339 188 q 327 164 303 135 q 279 106 248 78 q 217 50 185 28 q 153 6 127 -5 q 117 20 108 65 q 99 110 94 167 q 89 224 89 283 l 89 326 q 89 333 88 340 q 86 348 78 348 q 71 348 58 336 q 45 324 34 311 q 23 298 21 295 q 16 295 12 306 q 8 317 8 321 q 15 333 32 352 q 48 372 70 392 q 92 411 116 424 q 139 438 159 438 q 191 438 200 422 q 208 406 208 384 l 208 333 q 208 280 212 232 q 215 185 220 154 q 225 123 229 118 q 247 131 268 158 q 289 185 303 213 q 314 233 324 261 q 333 289 337 315 q 340 327 354 341 q 369 355 388 368 q 406 380 422 388 q 439 396 447 396 z"},"-":{"x_min":0,"x_max":366,"ha":366,"o":"m 69 261 q 69 261 90 262 q 111 263 143 264 q 175 266 208 268 q 242 269 268 270 q 295 272 305 272 q 308 272 310 271 q 312 270 312 264 q 312 251 308 234 q 303 218 297 205 q 274 204 236 202 q 197 200 152 198 q 107 196 62 194 q 55 194 55 205 q 55 219 60 234 q 64 250 69 261 z"},"E":{"x_min":0,"x_max":558,"ha":558,"o":"m 247 642 q 258 642 286 642 q 315 643 352 644 q 389 645 427 646 q 465 646 496 647 q 528 648 544 648 q 542 618 542 588 q 542 559 542 531 q 542 524 542 517 q 542 510 542 504 q 540 502 532 500 q 525 499 520 499 q 509 499 507 507 q 500 548 485 576 q 470 605 428 605 l 353 605 q 337 605 324 604 q 310 602 305 594 q 300 585 297 570 q 294 555 289 534 l 255 359 q 254 355 266 352 q 277 349 292 349 l 340 349 q 367 349 383 354 q 399 359 410 374 q 422 389 434 417 q 437 425 445 425 q 459 425 462 420 l 426 232 q 425 231 419 230 q 413 229 408 229 q 397 229 397 236 q 396 271 390 282 q 383 293 377 296 q 363 303 310 303 q 298 303 282 302 q 266 301 254 298 q 242 295 241 289 l 212 138 q 212 137 211 134 q 209 123 205 98 q 201 74 204 61 q 206 51 224 46 q 242 41 259 41 l 319 41 q 345 41 368 49 q 391 57 410 73 q 442 103 477 166 q 480 172 491 172 q 498 172 507 170 q 516 168 517 166 q 504 140 488 109 q 472 78 458 49 q 444 20 436 -2 l 117 -2 q 70 -2 36 -2 q 1 -3 -8 -3 q -10 2 -8 15 q -5 28 -1 33 q 5 34 18 36 q 32 37 45 40 q 58 44 61 50 q 69 65 74 88 q 79 111 85 142 l 155 501 q 156 505 156 509 q 157 513 158 517 q 163 542 166 561 q 169 580 166 593 q 165 600 154 603 q 142 606 129 607 q 116 608 110 608 q 108 613 111 627 q 114 641 118 645 q 148 643 184 642 q 219 642 247 642 z"},"s":{"x_min":0,"x_max":357,"ha":357,"o":"m 218 438 q 257 438 283 430 q 309 421 325 408 q 332 401 334 388 q 336 375 336 369 q 336 353 323 336 q 310 319 287 319 q 269 319 254 334 q 239 350 229 364 q 219 379 209 390 q 199 400 182 400 q 166 400 154 388 q 143 375 143 355 q 143 337 159 318 q 175 300 197 282 q 219 263 237 245 q 254 229 273 204 q 292 180 292 134 q 292 91 267 59 q 242 27 202 10 q 161 -7 113 -7 q 84 -7 56 2 q 27 10 11 23 q 4 31 2 42 q -1 53 -1 61 q -1 80 12 96 q 25 113 46 113 q 64 113 77 101 q 90 89 104 69 q 117 52 128 42 q 139 32 157 32 q 173 32 187 46 q 201 61 201 74 q 201 96 184 116 q 166 136 143 156 q 120 177 101 197 q 83 217 68 238 q 53 259 53 303 q 53 342 74 372 q 96 403 134 420 q 171 438 218 438 z"},">":{"x_min":0,"x_max":483,"ha":483,"o":"m 50 44 q 50 48 52 49 q 53 50 53 50 l 364 204 l 54 355 q 54 355 52 358 q 50 360 51 364 q 62 420 67 420 q 68 420 72 418 l 437 235 q 454 227 454 212 q 454 199 451 189 q 448 179 437 173 l 70 -13 q 66 -15 65 -15 q 62 -15 58 -2 q 55 12 52 26 q 50 41 50 44 z"},"l":{"x_min":0,"x_max":276,"ha":276,"o":"m 122 547 q 124 561 128 576 q 131 591 131 599 q 131 608 120 612 q 109 616 96 616 q 82 617 73 617 q 72 617 71 617 q 69 620 70 632 q 72 643 75 646 q 95 648 122 652 q 149 657 176 662 q 202 667 222 672 q 243 677 251 680 q 255 678 256 672 q 257 666 257 661 q 257 657 255 644 q 253 631 250 616 q 247 600 244 588 l 154 129 q 153 125 152 113 q 150 101 150 97 q 150 90 154 83 q 157 76 164 76 q 175 76 190 90 q 206 104 219 118 q 232 133 233 136 q 238 136 242 125 q 247 114 247 109 q 241 97 224 78 q 206 59 183 39 q 160 19 136 6 q 112 -8 92 -8 q 68 -8 49 8 q 30 25 30 62 q 30 73 34 94 q 38 114 39 120 z"},"8":{"x_min":0,"x_max":532,"ha":532,"o":"m 264 618 q 309 618 351 602 q 393 587 420 556 q 446 525 446 478 q 446 432 413 398 q 380 363 338 346 q 333 344 338 341 q 352 333 374 316 q 396 300 418 277 q 440 254 456 225 q 471 196 471 163 q 471 111 440 73 q 410 35 362 14 q 314 -6 262 -6 q 213 -6 167 8 q 121 23 92 57 q 62 91 62 149 q 62 190 81 220 q 100 250 129 270 q 158 290 187 299 q 190 300 185 304 q 168 319 142 341 q 116 363 96 396 q 76 429 76 475 q 76 518 104 550 q 132 582 175 600 q 218 618 264 618 z m 270 35 q 306 35 324 58 q 343 82 343 115 q 343 143 330 168 q 318 192 300 212 q 281 232 263 246 q 245 261 234 269 q 229 273 226 273 q 225 273 224 273 q 222 273 221 272 q 205 253 197 221 q 189 189 189 152 q 189 124 197 97 q 205 70 223 52 q 241 35 270 35 z m 262 578 q 235 578 218 555 q 202 532 202 500 q 202 467 218 442 q 234 416 254 400 q 274 384 286 377 q 288 376 292 374 q 295 372 298 372 q 301 372 304 375 q 318 395 321 420 q 324 446 324 475 q 324 497 318 521 q 311 545 298 562 q 284 578 262 578 z"},"\\":{"x_min":0,"x_max":344,"ha":344,"o":"m 30 711 q 40 711 48 710 q 56 709 62 705 q 73 698 78 690 l 331 -196 l 329 -198 q 327 -200 324 -201 q 318 -203 313 -203 q 292 -203 278 -196 q 266 -190 264 -182 l 12 704 q 13 711 30 711 z"},"e":{"x_min":0,"x_max":384,"ha":384,"o":"m 262 438 q 287 438 312 430 q 337 422 354 402 q 370 383 370 349 q 370 319 352 293 q 335 267 306 247 q 278 227 246 213 q 215 199 186 192 q 157 184 139 184 q 138 182 138 172 q 137 163 137 159 q 137 141 142 122 q 146 102 159 88 q 172 75 196 75 q 213 75 230 84 q 246 94 260 106 q 275 118 284 128 q 294 138 295 139 q 302 139 306 126 q 310 114 310 109 q 305 101 285 82 q 265 64 238 44 q 210 23 180 8 q 151 -6 128 -6 q 76 -6 46 32 q 16 69 16 137 q 16 191 38 244 q 61 298 97 342 q 133 386 176 412 q 220 438 262 438 z m 142 221 q 156 221 175 233 q 194 245 212 266 q 230 286 242 312 q 254 337 254 364 q 254 378 250 390 q 245 402 229 402 q 211 402 196 382 q 181 361 170 330 q 158 300 151 270 q 144 240 142 221 z"},"b":{"x_min":0,"x_max":454,"ha":454,"o":"m 186 328 q 200 349 227 375 q 254 401 284 420 q 315 438 338 438 q 379 438 403 410 q 427 382 427 329 q 427 260 400 200 q 372 139 328 92 q 285 46 237 20 q 189 -6 147 -6 q 101 -6 68 24 q 34 54 34 104 q 34 114 36 131 q 38 148 40 158 l 116 547 q 119 561 122 576 q 125 591 125 599 q 125 608 114 612 q 103 616 90 616 q 76 617 67 617 q 66 617 65 617 q 63 620 64 632 q 66 643 69 646 q 89 648 116 652 q 143 657 170 662 q 196 667 216 672 q 237 677 245 680 q 249 678 250 672 q 251 666 251 661 q 251 657 249 644 q 247 631 244 616 q 241 600 238 588 z m 273 353 q 257 353 238 336 q 220 318 203 290 q 186 262 173 228 q 160 195 154 163 q 149 136 148 107 q 147 78 154 58 q 162 38 179 38 q 202 38 224 64 q 246 91 264 132 q 281 172 291 216 q 301 260 301 295 q 301 313 296 333 q 290 353 273 353 z"},"%":{"x_min":0,"x_max":669,"ha":669,"o":"m 190 626 q 235 626 270 607 q 305 588 324 555 q 344 522 344 480 q 344 439 324 404 q 303 370 268 350 q 234 329 191 329 q 146 329 112 348 q 77 368 58 402 q 38 435 38 476 q 38 517 58 551 q 78 585 112 606 q 147 626 190 626 z m 480 297 q 525 297 560 278 q 595 259 614 226 q 634 193 634 151 q 634 110 614 76 q 593 41 558 20 q 524 0 481 0 q 436 0 402 20 q 367 39 348 72 q 328 105 328 146 q 328 187 348 222 q 368 256 402 276 q 437 297 480 297 z m 608 620 l 104 -5 q 101 -9 89 -14 q 77 -20 64 -20 q 53 -20 52 -14 q 50 -8 50 -8 l 554 617 q 560 622 570 626 q 580 630 593 630 q 608 630 608 620 z m 473 268 q 449 268 438 250 q 427 233 424 208 q 421 183 421 159 q 421 131 428 101 q 435 71 450 50 q 464 30 488 30 q 512 30 524 47 q 535 64 538 89 q 541 114 541 137 q 541 166 534 196 q 527 227 512 248 q 497 268 473 268 z m 183 597 q 159 597 148 580 q 137 562 134 537 q 131 512 131 488 q 131 460 138 430 q 144 400 159 380 q 174 359 198 359 q 222 359 234 376 q 245 393 248 418 q 251 443 251 466 q 251 495 244 526 q 237 556 222 576 q 207 597 183 597 z"},"m":{"x_min":0,"x_max":737,"ha":737,"o":"m 505 120 q 510 142 516 169 q 522 196 526 216 q 530 236 530 236 q 532 242 534 258 q 537 274 540 290 q 542 306 542 311 q 542 319 538 325 q 534 331 526 331 q 516 331 498 311 q 480 291 460 256 q 440 222 422 179 q 405 136 395 89 l 375 0 q 368 -2 348 -4 q 328 -6 320 -6 q 312 -6 292 -4 q 272 -2 263 0 l 313 236 q 315 242 318 258 q 320 274 322 290 q 325 306 325 311 q 325 319 322 325 q 318 331 310 331 q 300 331 282 311 q 264 291 244 256 q 224 222 206 179 q 188 136 178 89 l 158 0 q 151 -2 132 -4 q 112 -6 104 -6 q 96 -6 76 -4 q 55 -2 46 0 l 104 302 q 105 305 106 318 q 108 330 108 334 q 108 341 105 348 q 102 354 94 354 q 84 354 68 340 q 51 327 38 312 q 26 298 24 295 q 19 295 15 306 q 11 317 11 321 q 17 333 34 352 q 51 371 73 391 q 95 411 118 424 q 142 438 162 438 q 191 438 210 420 q 228 403 228 369 q 228 359 224 339 q 221 319 219 311 q 218 302 214 285 q 209 268 209 268 q 220 293 240 322 q 260 351 284 378 q 308 404 332 421 q 356 438 374 438 q 415 438 430 417 q 444 396 444 354 q 444 342 442 324 q 441 307 438 290 q 456 323 484 357 q 511 391 540 414 q 569 438 591 438 q 632 438 646 417 q 661 396 661 354 q 661 336 658 312 q 654 287 650 264 q 645 241 642 228 q 638 210 631 180 q 624 149 620 129 q 619 122 618 112 q 616 101 616 97 q 616 90 620 83 q 623 76 630 76 q 641 76 656 90 q 672 104 685 118 q 698 133 699 136 q 704 136 708 125 q 713 114 713 109 q 707 97 690 78 q 672 59 649 39 q 626 19 602 6 q 578 -8 558 -8 q 534 -8 515 8 q 496 25 496 62 q 496 73 500 94 q 504 114 505 120 z"},"#":{"x_min":0,"x_max":463,"ha":463,"o":"m 399 331 l 340 331 l 321 210 l 385 210 q 392 210 390 195 q 389 180 384 164 q 378 148 371 145 l 311 145 l 293 35 q 292 32 283 27 q 274 22 263 22 q 256 22 254 24 q 252 26 252 26 l 271 145 l 153 145 l 135 35 q 134 32 126 27 q 117 22 106 22 q 99 22 97 24 q 95 26 95 26 l 114 145 l 50 145 q 44 145 46 160 q 48 176 54 192 q 61 208 67 210 l 125 210 l 144 331 l 77 331 q 71 331 73 346 q 75 362 81 378 q 87 394 93 396 l 154 396 l 172 506 q 174 513 180 516 q 186 519 200 519 q 207 519 209 518 q 211 518 213 516 l 194 396 l 311 396 l 329 506 q 331 513 338 516 q 344 519 358 519 q 365 519 366 518 q 368 518 370 516 l 351 396 l 411 396 q 418 396 417 381 q 416 366 411 350 q 406 334 399 331 z m 183 331 l 163 210 l 282 210 l 301 331 z"},",":{"x_min":0,"x_max":218,"ha":218,"o":"m 116 136 q 129 136 140 131 q 151 126 159 120 q 165 109 169 92 q 173 74 173 57 q 173 11 154 -31 q 134 -73 104 -104 q 73 -136 39 -153 q 31 -151 25 -142 q 19 -134 19 -130 q 29 -124 45 -108 q 61 -93 74 -72 q 88 -50 88 -26 q 88 -14 81 -6 q 74 1 64 8 q 55 16 48 29 q 41 42 41 66 q 41 74 47 91 q 53 108 70 122 q 86 136 116 136 z"},"n":{"x_min":0,"x_max":523,"ha":523,"o":"m 219 311 q 218 303 214 287 q 210 271 209 268 q 220 293 240 322 q 260 352 284 378 q 308 404 332 421 q 356 438 374 438 q 415 438 430 417 q 444 396 444 354 q 444 338 440 313 q 437 288 432 264 q 428 241 425 228 l 406 129 q 405 126 404 114 q 402 101 402 97 q 402 90 406 83 q 409 76 416 76 q 427 76 442 90 q 458 104 471 118 q 484 133 485 136 q 490 136 494 125 q 499 114 499 109 q 493 97 476 78 q 458 59 435 39 q 412 19 388 6 q 364 -8 344 -8 q 320 -8 301 8 q 282 25 282 62 q 282 73 286 94 q 290 114 291 120 l 313 236 q 315 242 318 258 q 320 274 322 290 q 325 306 325 311 q 325 319 322 325 q 318 331 310 331 q 300 331 282 311 q 264 291 244 256 q 224 222 206 179 q 188 136 178 89 l 158 0 q 151 -2 132 -4 q 112 -6 104 -6 q 96 -6 76 -4 q 55 -2 46 0 l 104 302 q 105 305 106 318 q 108 330 108 334 q 108 341 105 348 q 102 354 94 354 q 84 354 68 340 q 51 327 38 312 q 26 298 24 295 q 19 295 15 306 q 11 317 11 321 q 17 333 34 352 q 51 371 73 391 q 95 411 118 424 q 142 438 162 438 q 191 438 210 420 q 228 403 228 369 q 228 359 224 339 q 221 319 219 311 z"},"h":{"x_min":0,"x_max":492,"ha":492,"o":"m 241 588 q 241 588 237 568 q 233 549 227 518 q 221 486 214 451 q 207 416 201 384 q 195 352 191 330 q 187 309 186 307 q 184 298 182 287 q 180 276 178 268 q 189 293 209 322 q 229 351 253 378 q 277 404 301 421 q 325 438 343 438 q 384 438 398 417 q 413 396 413 354 q 413 338 410 313 q 406 288 402 264 q 397 241 394 228 l 375 129 q 374 126 372 114 q 371 101 371 97 q 371 90 374 83 q 378 76 385 76 q 396 76 412 90 q 427 104 440 118 q 453 133 454 136 q 459 136 464 125 q 468 114 468 109 q 462 97 444 78 q 427 59 404 39 q 380 19 356 6 q 332 -8 312 -8 q 288 -8 270 8 q 251 25 251 62 q 251 73 255 94 q 259 114 260 120 l 282 236 q 284 242 286 258 q 289 274 292 290 q 294 306 294 311 q 294 319 290 325 q 286 331 278 331 q 268 331 250 311 q 232 291 212 256 q 192 222 174 179 q 156 136 146 89 l 127 0 q 120 -2 100 -4 q 80 -6 72 -6 q 64 -6 44 -4 q 24 -2 15 0 q 16 6 22 38 q 29 71 38 120 q 47 169 58 226 q 69 283 80 339 q 90 395 99 442 q 108 488 114 517 q 119 546 119 547 q 122 561 125 576 q 128 591 128 599 q 128 608 117 612 q 106 616 92 616 q 79 617 70 617 q 69 617 68 617 q 66 620 68 632 q 69 643 72 646 q 92 648 119 652 q 146 657 172 662 q 199 667 220 672 q 240 677 248 680 q 252 678 253 672 q 254 666 254 661 q 254 657 252 642 q 249 627 246 611 q 243 595 241 588 z"},"z":{"x_min":0,"x_max":430,"ha":430,"o":"m 166 439 q 197 439 218 433 q 240 427 259 418 q 273 412 292 406 q 312 399 340 399 q 357 399 376 413 q 396 427 408 438 q 423 438 426 428 q 428 418 429 411 q 429 408 408 386 q 386 363 352 330 q 318 298 280 262 q 242 227 208 196 q 174 164 152 144 q 130 123 129 122 q 133 124 146 127 q 160 130 170 130 q 213 130 243 115 q 256 109 274 101 q 291 93 307 93 q 322 93 333 104 q 344 114 352 126 q 359 138 362 142 q 370 142 374 133 q 379 124 380 118 q 373 104 358 84 q 344 63 326 43 q 307 23 287 10 q 267 -3 247 -3 q 216 -3 195 4 q 174 10 154 19 q 141 25 122 31 q 102 37 73 37 q 57 37 37 23 q 17 9 5 -2 q -10 -2 -12 8 q -15 18 -16 25 q -16 29 6 51 q 27 73 61 106 q 95 138 133 174 q 171 210 206 242 q 240 273 262 293 q 284 313 284 314 q 280 313 266 310 q 253 307 243 307 q 223 307 204 310 q 185 314 170 321 q 157 327 140 336 q 122 344 106 344 q 92 344 80 334 q 69 323 62 312 q 55 300 51 295 q 44 295 39 304 q 34 312 33 318 q 40 332 54 352 q 69 373 88 393 q 106 413 126 426 q 147 439 166 439 z"},"B":{"x_min":0,"x_max":575,"ha":575,"o":"m 387 645 q 429 645 468 630 q 508 615 530 581 q 551 547 540 490 q 532 451 507 423 q 482 395 456 378 q 429 362 416 357 q 410 355 410 354 q 409 352 410 352 q 427 350 449 338 q 471 327 491 306 q 511 285 522 256 q 532 226 524 188 q 514 140 480 98 q 445 56 398 29 q 352 4 302 0 q 253 -4 203 -3 q 195 -3 182 -3 q 170 -3 154 -3 q 126 -3 93 -3 q 60 -3 32 -3 q 5 -3 -8 -3 q -10 2 -8 15 q -5 28 -1 33 q 5 34 18 36 q 32 37 45 40 q 58 44 61 50 q 69 65 74 88 q 79 111 85 142 l 155 501 q 156 505 156 509 q 157 513 158 517 q 163 542 166 561 q 169 580 166 593 q 165 600 154 603 q 142 606 129 607 q 116 608 110 608 q 108 613 111 627 q 114 641 118 645 q 148 643 184 642 q 219 642 247 642 q 276 642 312 644 q 347 645 387 645 z m 248 324 l 206 106 q 206 105 205 103 q 204 95 202 76 q 199 58 202 50 q 206 42 223 40 q 240 38 257 38 q 278 38 302 50 q 327 63 348 92 q 369 122 379 172 q 387 209 383 244 q 379 278 358 301 q 338 324 295 324 z m 256 362 l 303 362 q 337 362 364 392 q 391 421 402 476 q 416 546 402 576 q 388 605 353 605 q 337 605 324 604 q 310 602 305 594 q 300 585 297 570 q 294 555 289 534 z"},"K":{"x_min":0,"x_max":671,"ha":671,"o":"m 509 138 q 546 83 575 60 q 604 37 622 32 q 639 28 644 28 q 644 28 644 28 q 646 23 644 12 q 641 0 640 -2 q 627 -3 620 -4 q 613 -5 604 -6 q 595 -6 576 -6 q 528 -6 496 4 q 463 13 440 34 q 416 55 392 90 q 384 102 368 128 q 351 153 332 184 q 312 214 294 244 q 275 274 261 295 q 260 297 257 298 q 254 299 252 299 q 247 299 242 293 l 213 142 q 212 138 212 134 q 211 130 210 126 q 205 101 202 82 q 199 63 202 50 q 203 44 214 40 q 225 36 238 34 q 251 33 257 32 q 259 27 256 14 q 254 1 250 -4 q 225 -1 188 1 q 150 3 121 3 q 93 3 56 1 q 18 -1 -9 -4 q -11 1 -8 14 q -5 27 -1 32 q 5 33 18 34 q 32 36 44 40 q 57 44 60 50 q 68 65 74 88 q 79 111 85 142 l 155 501 q 156 505 156 509 q 157 513 158 517 q 163 542 166 561 q 169 580 166 593 q 165 600 154 604 q 143 607 130 608 q 117 610 111 610 q 109 615 112 628 q 114 642 118 646 q 144 643 182 642 q 219 640 247 640 q 276 640 312 642 q 349 643 376 646 q 378 642 376 628 q 374 615 369 610 q 363 610 350 608 q 336 607 324 604 q 312 600 308 593 q 300 578 294 556 q 288 533 282 501 l 249 329 q 284 355 312 378 q 341 400 360 418 q 393 448 416 469 q 440 490 461 510 q 482 530 506 557 q 515 567 518 576 q 520 584 521 589 q 523 600 514 604 q 505 609 494 610 q 482 611 475 611 q 473 617 474 628 q 475 639 479 646 q 504 645 538 642 q 572 640 597 640 q 659 640 710 646 q 711 641 709 629 q 707 617 702 612 q 698 612 678 608 q 659 605 634 596 q 610 587 591 569 q 591 569 569 548 q 547 528 512 496 q 478 465 440 430 q 402 396 371 367 q 362 358 366 352 q 393 310 416 276 q 438 242 460 210 q 483 177 509 138 z"},"R":{"x_min":0,"x_max":629,"ha":629,"o":"m 247 642 q 276 642 312 644 q 348 645 388 645 q 445 645 485 620 q 525 596 542 552 q 560 508 548 447 q 542 415 522 391 q 501 367 476 350 q 450 332 426 322 q 401 312 387 309 q 405 273 416 250 q 428 226 436 208 q 445 189 456 171 q 467 153 483 127 q 510 85 539 64 q 568 42 591 34 q 614 27 621 27 q 623 22 622 10 q 620 -2 619 -4 q 606 -5 600 -6 q 595 -7 588 -8 q 580 -8 561 -8 q 505 -8 469 4 q 433 15 412 32 q 390 49 378 67 q 367 85 361 97 l 268 277 q 268 277 264 284 q 260 292 255 292 l 242 292 l 213 142 q 212 138 212 134 q 211 130 210 126 q 205 101 202 82 q 199 63 202 50 q 203 44 214 40 q 225 36 238 34 q 251 33 257 32 q 259 27 256 14 q 254 1 250 -4 q 225 -1 188 1 q 150 3 121 3 q 93 3 56 1 q 18 -1 -9 -4 q -11 1 -8 14 q -5 27 -1 32 q 5 33 18 34 q 32 36 44 40 q 57 44 60 50 q 68 65 74 88 q 79 111 85 142 l 155 501 q 156 505 156 509 q 157 513 158 517 q 163 542 166 561 q 169 580 166 593 q 165 600 154 603 q 142 606 129 607 q 116 608 110 608 q 108 613 111 627 q 114 641 118 645 q 148 643 184 642 q 219 642 247 642 z m 249 330 l 291 330 q 330 330 362 356 q 395 383 411 438 q 419 464 421 493 q 423 522 417 548 q 411 573 396 589 q 380 605 352 605 q 336 605 323 604 q 310 602 305 594 q 300 585 297 570 q 294 555 289 534 z"},"T":{"x_min":0,"x_max":582,"ha":582,"o":"m 516 642 q 549 642 567 646 q 585 651 595 656 q 605 660 613 660 q 618 660 620 660 q 622 659 624 657 l 613 478 q 611 476 602 474 q 592 471 586 471 q 578 471 578 476 q 580 508 571 536 q 562 564 545 582 q 528 599 505 599 l 420 599 l 331 142 q 330 138 330 134 q 329 130 328 126 q 323 101 320 82 q 317 63 320 50 q 321 44 332 40 q 343 36 356 34 q 369 33 375 32 q 377 27 374 14 q 372 1 368 -4 q 343 -1 306 1 q 269 3 240 3 q 212 3 174 1 q 137 -1 110 -4 q 108 1 110 14 q 113 27 117 32 q 123 33 136 34 q 150 36 163 40 q 176 44 179 50 q 187 65 192 88 q 198 111 204 142 l 293 599 l 208 599 q 185 599 161 582 q 137 564 118 536 q 98 508 87 476 q 85 471 77 471 q 71 471 63 474 q 55 476 53 478 l 111 657 q 114 659 116 660 q 118 660 123 660 q 132 660 140 656 q 149 651 166 646 q 182 642 214 642 z"},"P":{"x_min":0,"x_max":543,"ha":543,"o":"m 559 454 q 548 396 510 357 q 472 318 422 298 q 372 279 326 279 q 307 279 296 284 q 285 290 280 294 q 277 296 274 304 q 270 312 270 316 q 270 323 275 323 q 287 319 305 319 q 328 319 352 336 q 377 353 396 380 q 416 408 422 440 q 431 484 425 522 q 419 559 401 582 q 383 605 352 605 q 336 605 323 604 q 310 602 305 594 q 300 585 297 570 q 294 555 289 534 l 213 142 q 212 138 212 134 q 211 130 210 126 q 205 101 202 82 q 199 63 202 50 q 203 44 214 40 q 225 36 238 34 q 251 33 257 32 q 259 27 256 14 q 254 1 250 -4 q 225 -1 188 1 q 150 3 121 3 q 93 3 56 1 q 18 -1 -9 -4 q -11 1 -8 14 q -5 27 -1 32 q 5 33 18 34 q 32 36 44 40 q 57 44 60 50 q 68 65 74 88 q 79 111 85 142 l 155 501 q 156 505 156 509 q 157 513 158 517 q 163 542 166 561 q 169 580 166 593 q 165 600 154 603 q 142 606 129 607 q 116 608 110 608 q 108 613 111 627 q 114 641 118 645 q 148 643 184 642 q 219 642 247 642 q 276 642 312 644 q 348 645 388 645 q 445 645 487 619 q 529 593 550 550 q 570 506 559 454 z"},"|":{"x_min":0,"x_max":197,"ha":197,"o":"m 125 -370 q 125 -375 81 -384 l 78 -384 q 72 -384 72 -381 q 72 -381 72 -380 q 73 -380 73 -379 l 73 705 l 74 710 q 75 711 76 712 q 77 712 78 713 q 96 718 116 718 q 124 718 124 712 z"},"t":{"x_min":0,"x_max":320,"ha":320,"o":"m 115 414 l 130 492 q 134 497 150 508 q 166 518 185 530 q 204 541 219 549 q 234 557 237 557 q 246 557 254 551 l 229 414 l 314 414 q 317 414 318 410 q 318 406 318 402 q 318 383 309 369 l 220 369 l 173 129 q 172 125 170 113 q 169 101 169 97 q 169 90 172 83 q 176 76 183 76 q 194 76 210 90 q 225 104 238 118 q 251 133 252 136 q 257 136 262 125 q 266 114 266 109 q 260 97 242 78 q 225 59 202 39 q 178 19 154 6 q 130 -8 110 -8 q 86 -8 68 8 q 49 25 49 62 q 49 73 52 92 q 56 110 58 120 l 106 369 l 34 369 q 32 369 32 372 q 32 377 39 387 q 46 397 57 406 q 68 414 79 414 z"},"M":{"x_min":0,"x_max":838,"ha":838,"o":"m 236 641 q 259 641 282 643 q 304 645 332 646 q 338 623 348 579 q 357 535 370 478 q 382 421 396 358 q 410 294 423 232 q 423 232 424 231 q 425 230 426 230 q 427 230 429 232 q 431 235 431 236 q 431 236 442 256 q 453 275 471 307 q 489 339 511 378 q 533 417 555 458 q 577 498 596 533 q 607 554 619 580 q 631 605 639 624 q 647 643 647 643 q 651 643 672 642 q 692 641 714 640 q 736 640 745 640 q 768 640 796 642 q 824 645 852 646 q 854 643 854 629 q 854 615 849 609 q 844 609 826 606 q 807 604 799 599 q 791 594 786 586 q 782 579 779 559 q 775 534 767 484 q 759 435 749 375 q 739 315 730 255 q 720 195 713 148 q 709 120 706 94 q 703 69 706 50 q 708 43 720 39 q 731 35 744 34 q 756 32 759 32 q 761 25 760 14 q 759 4 755 -4 q 728 -2 695 1 q 662 4 632 4 q 601 4 560 1 q 520 -2 488 -4 q 486 -1 488 12 q 491 26 494 32 q 500 32 514 34 q 527 36 541 40 q 555 44 560 51 q 571 66 575 85 q 577 93 580 112 q 583 132 585 145 l 642 485 q 643 487 644 499 q 646 511 641 511 q 639 511 635 504 l 384 39 q 382 35 374 25 q 366 15 356 6 q 347 -2 338 -2 q 336 -2 334 -2 q 332 -1 330 0 l 226 511 q 212 450 202 408 q 193 365 186 334 q 179 302 172 273 q 166 244 159 210 q 152 177 141 131 q 137 115 134 92 q 131 68 131 63 q 132 53 149 46 q 166 39 184 36 q 202 32 205 32 q 206 27 204 16 q 203 4 199 -4 q 172 -2 146 1 q 119 4 89 4 q 58 4 32 1 q 5 -2 -27 -4 q -28 1 -26 12 q -25 24 -21 31 q -15 31 2 34 q 19 38 38 46 q 56 54 63 66 q 66 71 72 88 q 77 106 82 125 q 88 144 90 152 q 98 186 109 234 q 120 282 132 334 q 145 386 156 434 q 167 482 176 518 q 184 553 187 567 q 188 572 188 578 q 188 584 186 589 q 182 597 162 604 q 143 610 131 610 q 128 616 132 630 q 137 645 138 646 q 169 645 187 643 q 205 641 236 641 z"},"g":{"x_min":0,"x_max":433,"ha":433,"o":"m 355 385 q 358 381 370 360 q 383 340 383 302 q 383 268 369 240 q 355 213 334 192 q 312 172 289 158 q 266 144 248 137 q 235 132 220 128 q 205 124 194 119 q 184 114 184 103 q 184 94 202 86 q 221 78 249 68 q 277 59 304 45 q 332 31 350 10 q 369 -10 369 -39 q 369 -85 336 -127 q 303 -169 246 -195 q 190 -221 118 -221 q 38 -221 -9 -187 q -56 -153 -56 -107 q -56 -81 -42 -63 q -28 -45 -7 -32 q 14 -19 36 -10 q 59 -2 77 4 q 77 4 68 8 q 58 13 48 18 q 37 24 33 27 q 27 33 23 37 q 19 41 19 55 q 19 64 34 77 q 49 90 72 103 q 95 116 118 126 q 142 137 160 141 q 130 149 102 165 q 75 181 58 207 q 40 233 40 271 q 40 320 64 360 q 89 399 130 423 q 170 447 218 447 q 247 447 270 440 q 293 432 311 424 q 316 422 337 426 q 358 430 375 434 q 382 435 387 436 q 392 438 395 438 q 402 436 414 430 q 425 423 434 416 q 444 408 444 402 q 444 397 440 391 q 435 385 429 385 z m 268 -110 q 268 -95 252 -80 q 236 -66 212 -54 q 187 -41 160 -31 q 134 -21 112 -14 q 86 -28 72 -44 q 58 -59 58 -82 q 58 -129 91 -152 q 124 -174 168 -174 q 187 -174 210 -167 q 234 -160 251 -146 q 268 -131 268 -110 z m 229 409 q 205 410 188 389 q 171 368 162 336 q 153 304 151 271 q 150 237 158 206 q 167 176 194 174 q 216 173 234 191 q 251 209 262 238 q 272 266 273 295 q 274 318 271 344 q 268 370 258 389 q 248 408 229 409 z"},"j":{"x_min":0,"x_max":279,"ha":279,"o":"m 113 302 q 114 305 116 318 q 118 330 118 334 q 118 341 115 348 q 112 354 104 354 q 94 354 78 340 q 61 327 48 312 q 36 298 34 295 q 29 295 25 306 q 21 317 21 321 q 27 333 44 352 q 61 371 83 391 q 105 411 128 424 q 152 438 172 438 q 201 438 219 420 q 237 403 237 369 q 237 359 234 339 q 231 319 229 311 q 229 311 226 292 q 222 272 216 242 q 210 211 204 178 q 197 144 191 117 q 179 56 158 12 q 136 -32 106 -73 q 90 -94 64 -117 q 38 -140 9 -161 q -20 -182 -44 -196 q -67 -210 -77 -213 q -81 -213 -84 -206 q -86 -198 -86 -191 q -34 -151 -4 -112 q 25 -74 42 -24 q 60 25 74 98 z m 230 673 q 255 673 271 655 q 287 637 287 611 q 287 579 264 554 q 242 528 211 528 q 186 528 170 546 q 154 565 154 590 q 154 622 176 648 q 199 673 230 673 z"},"i":{"x_min":0,"x_max":302,"ha":302,"o":"m 104 302 q 105 305 106 318 q 108 330 108 334 q 108 341 105 348 q 102 354 94 354 q 84 354 68 340 q 51 327 38 312 q 26 298 24 295 q 19 295 15 306 q 11 317 11 321 q 17 333 34 352 q 51 371 73 391 q 95 411 118 424 q 142 438 162 438 q 191 438 210 420 q 228 403 228 369 q 228 359 224 339 q 221 319 219 311 l 183 129 q 182 126 180 114 q 179 101 179 97 q 179 90 182 83 q 185 76 192 76 q 203 76 219 90 q 235 104 248 118 q 261 133 262 136 q 267 136 271 125 q 275 114 275 109 q 269 97 252 78 q 234 59 211 39 q 188 19 164 6 q 140 -8 120 -8 q 96 -8 78 8 q 59 25 59 62 q 59 73 62 94 q 66 114 67 120 z m 208 671 q 233 671 249 654 q 265 636 265 610 q 265 578 242 552 q 219 527 188 527 q 163 527 148 546 q 132 564 132 589 q 132 621 154 646 q 177 671 208 671 z"},"y":{"x_min":0,"x_max":489,"ha":489,"o":"m 126 438 q 159 438 182 414 q 205 391 220 352 q 234 314 242 268 q 250 222 253 176 q 256 131 256 94 q 257 56 257 35 q 257 28 257 25 q 270 41 288 70 q 305 100 322 138 q 338 175 349 216 q 360 257 360 297 q 360 326 345 346 q 330 366 319 375 q 319 392 330 406 q 340 420 356 429 q 371 438 385 438 q 411 438 436 418 q 460 399 460 348 q 460 291 435 228 q 410 164 368 101 q 325 38 274 -18 q 223 -75 170 -118 q 116 -162 69 -188 q 22 -213 -11 -213 q -37 -213 -56 -198 q -74 -183 -74 -152 q -74 -139 -65 -124 q -56 -110 -45 -104 q -34 -111 -5 -123 q 24 -135 52 -135 q 83 -135 100 -127 q 116 -119 122 -110 q 129 -101 130 -98 q 135 -84 136 -60 q 138 -36 138 -9 q 139 18 139 39 q 139 47 139 50 q 139 92 135 143 q 131 194 122 240 q 113 287 100 318 q 87 348 69 348 q 57 348 44 336 q 32 323 24 310 q 15 297 13 295 q 7 296 2 308 q -2 319 -1 321 q 3 328 16 347 q 30 366 49 387 q 68 408 88 423 q 109 438 126 438 z"},"@":{"x_min":0,"x_max":749,"ha":749,"o":"m 436 564 q 532 564 594 526 q 655 487 685 423 q 715 359 715 283 q 715 227 698 175 q 680 123 650 82 q 619 41 580 17 q 542 -7 499 -7 q 463 -7 433 12 q 403 32 403 77 q 403 83 404 91 q 405 99 407 105 q 398 87 376 61 q 355 35 327 15 q 299 -5 269 -5 q 244 -5 222 4 q 201 14 188 40 q 174 66 174 117 q 174 160 192 204 q 209 249 240 290 q 270 331 308 363 q 347 395 390 414 q 432 433 474 433 q 500 433 533 429 q 566 425 580 420 l 525 124 q 524 121 523 112 q 522 104 522 100 q 522 99 522 96 q 522 85 524 70 q 527 54 545 54 q 563 54 585 72 q 607 89 627 120 q 647 150 660 190 q 672 230 672 276 q 672 342 648 399 q 625 456 573 490 q 521 525 436 525 q 361 525 298 494 q 236 462 190 410 q 143 357 118 294 q 92 230 92 166 q 92 109 110 62 q 129 15 159 -20 q 189 -54 224 -75 q 250 -91 268 -96 q 285 -100 299 -102 q 299 -108 286 -114 q 272 -121 260 -121 q 247 -121 236 -118 q 226 -116 216 -112 q 171 -95 132 -57 q 93 -19 69 36 q 45 92 45 161 q 45 233 74 304 q 103 375 156 434 q 208 493 280 528 q 351 564 436 564 z m 433 380 q 403 380 378 360 q 352 339 333 304 q 314 270 304 228 q 294 187 294 145 q 294 118 306 105 q 317 92 333 92 q 364 92 393 140 q 422 188 438 268 l 458 367 q 451 375 447 378 q 443 380 433 380 z"},".":{"x_min":0,"x_max":317,"ha":317,"o":"m 106 214 q 112 228 125 232 q 140 237 157 224 l 244 163 q 268 145 252 105 l 213 12 q 206 -4 190 -10 q 176 -16 153 1 l 78 58 q 51 79 62 107 z"},"p":{"x_min":0,"x_max":484,"ha":484,"o":"m 362 438 q 409 438 434 404 q 458 371 458 320 q 458 259 431 200 q 404 142 361 96 q 318 50 269 22 q 220 -5 175 -5 q 171 -5 163 -4 q 155 -3 148 0 l 123 -123 q 120 -136 120 -150 q 120 -154 124 -162 q 127 -171 134 -173 q 145 -176 159 -176 q 173 -176 178 -176 q 180 -176 180 -176 q 183 -177 182 -190 q 180 -204 176 -206 q 166 -206 158 -206 q 150 -205 142 -205 q 117 -205 82 -206 q 48 -207 13 -208 q -22 -210 -51 -214 q -55 -213 -54 -199 q -53 -185 -49 -183 q -23 -183 -10 -167 q -1 -155 6 -125 l 79 227 l 32 180 q 29 184 27 192 q 25 201 25 206 q 25 214 30 222 q 36 229 40 233 l 90 280 l 119 434 q 125 436 137 436 q 149 437 162 438 q 174 438 179 438 q 187 438 208 436 q 228 435 235 431 q 234 422 231 408 q 228 394 226 382 q 223 369 222 364 q 236 379 259 396 q 282 414 310 426 q 337 438 362 438 z m 294 356 q 272 356 251 344 q 230 331 214 315 q 212 305 206 278 q 201 251 195 220 q 189 190 184 168 q 180 146 180 146 q 169 90 176 64 q 183 38 202 38 q 228 38 252 66 q 275 93 293 134 q 311 176 322 218 q 332 261 332 292 q 332 316 324 336 q 317 356 294 356 z"},"X":{"x_min":0,"x_max":643,"ha":643,"o":"m 233 641 q 267 641 302 643 q 337 645 365 646 q 366 643 364 634 q 363 626 361 618 q 359 610 356 610 q 346 610 327 606 q 308 601 305 590 q 303 578 308 568 l 377 404 q 403 432 434 464 q 465 497 491 526 q 517 554 527 570 q 531 575 531 580 q 533 593 514 602 q 494 610 471 610 q 469 610 469 618 q 469 626 472 635 q 474 644 477 646 q 500 643 536 642 q 571 640 596 640 q 666 640 706 646 q 707 643 706 634 q 705 626 703 618 q 701 610 698 610 q 695 610 678 608 q 660 605 636 594 q 612 584 587 559 l 393 360 q 413 314 434 266 q 454 218 472 177 q 490 136 503 108 q 516 80 520 74 q 530 57 547 48 q 564 39 580 36 q 596 32 602 32 q 604 25 602 14 q 600 2 595 -4 q 577 -3 550 -2 q 523 0 496 1 q 469 2 450 2 q 412 2 378 0 q 344 -2 306 -4 q 304 -1 305 8 q 306 16 309 24 q 312 32 314 32 q 319 32 332 36 q 345 39 358 45 q 370 51 371 60 q 372 64 370 70 l 287 267 q 280 260 260 236 q 239 213 212 184 q 186 154 162 126 q 139 98 126 81 q 116 68 115 64 q 113 53 125 46 q 137 38 154 35 q 172 32 185 32 q 187 27 186 16 q 185 4 181 -4 q 159 -2 123 0 q 87 2 62 2 q 27 2 0 0 q -28 -2 -56 -4 q -58 1 -56 14 q -53 27 -49 32 q -45 32 -26 34 q -7 37 17 46 q 41 56 59 77 l 267 314 l 181 524 q 173 544 164 566 q 154 589 146 596 q 141 601 128 604 q 116 607 104 608 q 92 610 86 610 q 84 610 84 618 q 85 626 88 635 q 90 644 93 646 q 126 645 162 643 q 199 641 233 641 z"},"*":{"x_min":0,"x_max":430,"ha":430,"o":"m 281 604 q 297 621 317 622 q 337 622 348 611 q 360 599 362 580 q 363 561 347 544 q 332 527 315 521 q 298 515 282 511 q 266 507 252 494 q 252 494 249 490 q 246 485 246 481 q 246 477 253 474 q 270 466 286 466 q 301 466 318 466 q 336 465 357 455 q 378 446 385 426 q 392 407 385 393 q 378 378 360 371 q 342 364 321 373 q 300 383 289 396 q 278 410 270 424 q 261 438 244 447 q 244 447 238 450 q 233 452 230 450 q 227 449 226 442 q 225 429 227 418 q 229 408 233 397 q 236 385 239 372 q 242 358 240 339 q 238 317 222 304 q 205 292 190 293 q 174 296 162 311 q 149 326 151 348 q 154 372 164 386 q 174 400 184 413 q 195 426 198 444 q 198 444 198 450 q 198 455 196 458 q 195 460 187 459 q 169 455 156 446 q 144 438 130 429 q 115 420 92 414 q 70 409 54 420 q 37 432 34 447 q 32 463 42 480 q 52 496 74 501 q 93 506 108 502 q 122 499 135 494 q 145 490 156 487 q 167 484 180 486 q 180 486 186 487 q 192 488 193 492 q 194 495 190 502 q 189 503 189 503 q 180 519 168 528 q 155 537 142 548 q 129 559 117 579 q 105 599 111 619 q 117 639 130 646 q 145 654 164 649 q 182 644 194 624 q 204 607 205 592 q 206 578 205 565 q 205 553 206 542 q 206 531 212 519 q 212 519 215 514 q 218 509 222 508 q 224 508 226 508 q 228 509 231 512 q 244 526 249 540 q 254 555 260 571 q 266 587 281 604 z"},"Y":{"x_min":0,"x_max":562,"ha":562,"o":"m 186 142 l 213 277 q 214 285 211 297 q 207 313 199 341 q 191 369 181 400 q 171 432 162 460 q 154 488 148 506 q 142 524 142 524 q 135 544 132 554 q 129 563 124 578 q 117 596 97 602 q 77 609 68 610 q 66 615 68 628 q 71 642 75 646 q 101 643 138 642 q 176 640 204 640 q 233 640 270 642 q 306 643 333 646 q 335 642 333 628 q 331 615 326 610 q 320 610 306 608 q 293 607 281 602 q 269 596 266 584 q 265 581 268 572 q 269 569 269 568 l 336 353 q 337 351 352 371 q 368 391 392 422 q 415 454 440 490 q 465 525 486 555 q 490 561 492 564 q 499 576 501 587 q 502 596 490 600 q 477 605 462 607 q 446 609 439 610 q 438 610 438 610 q 436 615 438 628 q 441 642 445 646 q 477 643 496 642 q 515 640 546 640 q 576 640 598 642 q 621 645 649 646 q 651 642 649 628 q 647 615 642 610 q 636 610 622 608 q 609 607 594 602 q 579 597 570 586 q 563 578 542 551 q 521 524 492 487 q 464 450 435 412 q 406 373 382 340 q 359 308 348 291 q 340 280 339 272 l 313 142 q 306 111 303 88 q 300 65 303 50 q 304 44 315 40 q 326 36 338 34 q 351 33 357 32 q 359 27 356 14 q 354 1 350 -4 q 325 -1 288 1 q 251 3 222 3 q 194 3 157 1 q 120 -1 93 -4 q 91 1 94 14 q 96 27 100 32 q 106 33 120 34 q 133 36 146 40 q 158 44 161 50 q 169 65 174 88 q 179 111 186 142 z"},"c":{"x_min":0,"x_max":368,"ha":368,"o":"m 260 438 q 289 438 312 432 q 336 425 346 417 q 351 410 356 398 q 360 385 360 368 q 360 346 344 328 q 328 309 306 309 q 288 309 276 320 q 264 331 256 345 q 249 358 239 374 q 229 390 213 390 q 200 390 186 370 q 173 350 162 317 q 151 284 144 244 q 138 205 138 166 q 138 117 154 96 q 169 75 198 75 q 220 75 242 90 q 264 105 280 120 q 295 136 296 137 q 302 137 306 126 q 309 116 309 111 q 303 103 286 84 q 268 65 242 44 q 217 24 188 9 q 160 -6 132 -6 q 103 -6 76 8 q 49 23 32 52 q 15 82 15 128 q 15 185 36 240 q 58 295 94 340 q 129 385 172 412 q 216 438 260 438 z"},"!":{"x_min":0,"x_max":263,"ha":263,"o":"m 135 671 q 159 671 177 653 q 195 635 195 604 q 195 585 180 435 q 173 377 166 322 q 160 268 154 216 q 151 191 134 191 q 114 191 111 217 q 104 273 98 324 q 91 376 86 424 q 79 498 74 543 q 70 588 70 605 q 70 634 89 653 q 107 671 135 671 z m 58 64 q 58 94 79 115 q 100 136 131 136 q 162 136 183 114 q 204 92 204 62 q 204 32 183 11 q 161 -11 132 -11 q 101 -11 80 11 q 58 35 58 64 z"},"/":{"x_min":0,"x_max":344,"ha":344,"o":"m 314 711 q 332 711 333 704 l 81 -182 q 80 -189 66 -196 q 60 -199 52 -201 q 43 -203 32 -203 q 27 -203 21 -201 q 17 -199 15 -198 l 14 -196 l 267 690 q 272 698 283 705 q 289 709 296 710 q 304 711 314 711 z"},"[":{"x_min":0,"x_max":361,"ha":361,"o":"m 126 713 q 186 713 236 718 q 286 722 326 729 q 331 729 332 723 l 332 720 q 332 713 323 695 q 323 694 322 694 q 322 694 322 694 q 303 684 232 672 q 225 671 220 670 q 215 669 212 668 l 212 -338 q 216 -339 222 -340 q 228 -341 238 -343 q 267 -348 288 -353 q 309 -358 322 -364 q 328 -367 331 -379 q 332 -382 332 -385 q 332 -388 332 -390 q 332 -396 326 -398 q 245 -383 126 -383 q 111 -381 108 -365 q 108 -363 108 -362 q 107 -361 107 -360 l 107 690 q 107 705 122 712 q 124 713 126 713 z"},"6":{"x_min":0,"x_max":532,"ha":532,"o":"m 290 396 q 338 396 378 377 q 419 358 444 316 q 469 273 469 202 q 469 145 439 98 q 409 51 362 22 q 315 -6 263 -6 q 209 -6 164 28 q 118 62 90 118 q 63 173 63 236 q 63 290 80 338 q 96 387 122 428 q 148 469 177 499 q 219 544 264 571 q 310 598 352 612 q 394 626 427 630 q 433 626 434 619 q 436 612 434 604 q 342 566 288 506 q 233 445 210 371 q 229 382 250 389 q 272 396 290 396 z m 198 319 q 194 294 192 265 q 191 236 191 216 q 191 175 198 133 q 206 91 224 63 q 242 35 273 35 q 302 35 322 74 q 341 112 341 178 q 341 220 332 256 q 323 293 302 316 q 282 338 247 338 q 238 338 224 334 q 209 330 198 319 z"},"r":{"x_min":0,"x_max":421,"ha":421,"o":"m 366 438 q 387 438 397 436 q 407 433 420 426 q 426 419 431 408 q 436 397 436 383 q 436 348 418 330 q 399 312 379 312 q 364 312 354 319 q 343 326 334 330 q 327 334 324 336 q 320 338 308 338 q 298 338 280 317 q 262 296 242 260 q 223 224 206 180 q 188 136 178 89 l 158 0 q 151 -2 132 -4 q 112 -6 104 -6 q 96 -6 76 -4 q 55 -2 46 0 l 104 302 q 105 305 106 318 q 108 330 108 334 q 108 341 105 348 q 102 354 94 354 q 84 354 68 340 q 51 327 38 312 q 26 298 24 295 q 19 295 15 306 q 11 317 11 321 q 17 333 34 352 q 51 371 73 391 q 95 411 118 424 q 142 438 162 438 q 191 438 210 420 q 228 403 228 369 q 228 359 224 339 q 221 319 219 311 q 218 306 215 293 q 212 280 210 267 q 207 254 205 250 q 215 283 234 316 q 252 350 276 378 q 299 405 322 422 q 346 438 366 438 z"},"2":{"x_min":0,"x_max":532,"ha":532,"o":"m 478 188 q 474 171 465 142 q 456 114 446 84 q 437 54 429 30 q 421 7 419 0 l 63 0 q 59 4 58 9 q 56 14 55 18 q 93 60 126 96 q 159 132 192 172 q 224 212 258 265 q 292 318 303 362 q 314 405 314 438 q 314 470 299 496 q 284 521 260 536 q 237 551 210 551 q 176 551 152 535 q 129 519 116 502 q 102 485 98 481 q 94 481 86 488 q 77 494 77 505 q 83 519 99 540 q 115 560 140 580 q 165 600 198 614 q 231 627 272 627 q 319 627 358 608 q 396 589 419 552 q 442 516 442 463 q 442 418 422 376 q 402 333 368 293 q 328 247 282 197 q 235 147 185 100 l 353 100 q 383 100 400 114 q 416 129 426 150 q 436 170 444 187 q 446 193 458 193 q 463 193 468 192 q 474 191 478 188 z"},"{":{"x_min":0,"x_max":397,"ha":397,"o":"m 129 153 l 129 179 q 212 227 199 293 q 194 319 166 394 q 140 462 142 533 q 145 668 226 731 q 249 749 261 734 q 275 715 258 698 q 194 631 197 557 q 198 532 231 477 q 284 391 266 294 q 251 206 182 166 q 251 126 266 38 q 284 -59 231 -145 q 198 -200 197 -225 q 194 -299 258 -366 q 275 -383 261 -402 q 249 -417 226 -399 q 145 -336 142 -201 q 140 -130 166 -62 q 194 13 199 39 q 212 105 129 153 z"},"9":{"x_min":0,"x_max":532,"ha":532,"o":"m 99 20 q 191 58 245 118 q 299 179 322 253 q 282 229 242 229 q 195 229 154 248 q 113 266 88 308 q 63 351 63 422 q 63 479 93 526 q 123 574 170 602 q 218 630 270 630 q 325 630 370 596 q 415 562 442 507 q 469 452 469 388 q 469 334 452 286 q 436 237 410 196 q 384 156 355 125 q 313 81 268 54 q 222 26 180 12 q 138 -1 105 -6 q 99 -1 98 6 q 98 13 99 20 z m 334 305 q 339 326 340 356 q 341 385 341 408 q 341 449 334 491 q 326 533 308 561 q 290 589 259 589 q 231 589 211 550 q 191 512 191 446 q 191 405 200 368 q 209 331 230 308 q 251 286 285 286 q 294 286 309 290 q 324 295 334 305 z"}," ":{"x_min":0,"x_max":292,"ha":292,"o":""},"I":{"x_min":0,"x_max":344,"ha":344,"o":"m 247 640 q 276 640 312 642 q 349 643 376 646 q 378 642 376 628 q 374 615 369 610 q 363 610 350 608 q 336 607 324 604 q 312 600 308 593 q 300 578 294 556 q 288 533 282 501 l 213 142 q 212 138 212 134 q 211 130 210 126 q 205 101 202 82 q 199 63 202 50 q 203 44 214 40 q 225 36 238 34 q 251 33 257 32 q 259 27 256 14 q 254 1 250 -4 q 225 -1 188 1 q 150 3 121 3 q 93 3 56 1 q 18 -1 -9 -4 q -11 1 -8 14 q -5 27 -1 32 q 5 33 18 34 q 32 36 44 40 q 57 44 60 50 q 68 65 74 88 q 79 111 85 142 l 155 501 q 156 505 156 509 q 157 513 158 517 q 163 542 166 561 q 169 580 166 593 q 165 600 154 604 q 143 607 130 608 q 117 610 111 610 q 109 615 112 628 q 114 642 118 646 q 144 643 182 642 q 219 640 247 640 z"},"H":{"x_min":0,"x_max":690,"ha":690,"o":"m 247 640 q 276 640 312 642 q 349 643 376 646 q 378 642 376 628 q 374 615 369 610 q 363 610 350 608 q 336 607 324 604 q 312 600 308 593 q 300 578 294 556 q 288 533 282 501 l 256 362 q 256 361 256 360 q 257 359 257 359 q 283 358 309 357 q 335 356 366 356 q 391 356 420 357 q 448 358 473 359 q 473 359 474 360 q 475 362 475 363 l 501 501 q 502 505 502 509 q 503 513 504 517 q 509 542 512 561 q 515 580 512 593 q 511 600 500 604 q 489 607 476 608 q 463 610 457 610 q 455 615 458 628 q 460 642 464 646 q 490 643 528 642 q 565 640 593 640 q 622 640 658 642 q 695 643 722 646 q 724 642 722 628 q 720 615 715 610 q 709 610 696 608 q 682 607 670 604 q 657 600 653 593 q 645 578 640 556 q 634 533 628 501 l 558 142 q 558 140 557 138 q 551 108 548 86 q 545 64 548 50 q 549 44 560 40 q 571 36 584 34 q 596 33 602 32 q 604 27 602 14 q 600 1 596 -4 q 571 -1 534 1 q 496 3 467 3 q 439 3 402 1 q 365 -1 338 -4 q 336 1 338 14 q 341 27 345 32 q 351 33 364 34 q 378 36 390 40 q 403 44 406 50 q 414 65 420 88 q 426 111 432 142 l 463 303 q 463 305 462 306 q 462 308 462 308 q 437 309 410 310 q 384 310 356 310 q 306 310 283 310 q 260 309 254 308 q 247 307 245 306 q 244 305 244 304 q 243 302 243 302 l 213 142 q 212 138 212 134 q 211 130 210 126 q 205 101 202 82 q 199 63 202 50 q 203 44 214 40 q 225 36 238 34 q 251 33 257 32 q 259 27 256 14 q 254 1 250 -4 q 225 -1 188 1 q 150 3 121 3 q 93 3 56 1 q 18 -1 -9 -4 q -11 1 -8 14 q -5 27 -1 32 q 5 33 18 34 q 32 36 44 40 q 57 44 60 50 q 68 65 74 88 q 79 111 85 142 l 155 501 q 156 505 156 509 q 157 513 158 517 q 163 542 166 561 q 169 580 166 593 q 165 600 154 604 q 143 607 130 608 q 117 610 111 610 q 109 615 112 628 q 114 642 118 646 q 144 643 182 642 q 219 640 247 640 z"},"4":{"x_min":0,"x_max":532,"ha":532,"o":"m 402 629 q 407 629 418 620 q 428 611 428 602 l 428 236 l 473 236 q 478 236 482 224 q 486 211 486 190 q 486 179 482 174 q 477 170 477 170 l 428 170 l 428 4 q 428 4 410 0 q 392 -5 361 -5 q 336 -5 320 -2 q 305 1 305 8 l 305 170 l 57 170 q 47 175 47 194 q 135 304 220 411 q 305 518 383 615 q 388 621 392 625 q 396 629 402 629 z m 305 455 l 131 236 l 305 236 z"},"~":{"x_min":0,"x_max":525,"ha":525,"o":"m 188 351 q 220 351 244 343 q 269 335 290 325 q 312 315 336 307 q 361 299 393 299 q 419 299 440 312 q 461 326 483 342 q 487 340 487 327 q 487 305 466 284 q 445 264 414 252 q 384 239 355 239 q 323 239 298 247 q 274 255 252 265 q 230 275 206 283 q 181 291 149 291 q 123 291 102 278 q 82 265 59 248 q 55 250 55 263 q 55 287 78 307 q 100 327 132 339 q 163 351 188 351 z"},"D":{"x_min":0,"x_max":703,"ha":703,"o":"m 387 645 q 492 645 562 603 q 632 561 661 486 q 690 410 670 310 q 648 196 586 127 q 525 58 438 28 q 352 -3 254 -3 q 247 -3 233 -3 q 219 -3 202 -3 q 166 -3 122 -3 q 78 -3 42 -3 q 5 -3 -8 -3 q -10 2 -8 15 q -5 28 -1 33 q 5 34 18 36 q 32 37 45 40 q 58 44 61 50 q 69 65 74 88 q 79 111 85 142 l 155 501 q 156 505 156 509 q 157 513 158 517 q 163 542 166 561 q 169 580 166 593 q 165 600 154 603 q 142 606 129 607 q 116 608 110 608 q 108 613 111 627 q 114 641 118 645 q 148 643 184 642 q 219 642 247 642 q 276 642 312 643 q 347 644 387 645 z m 289 534 l 212 138 q 212 137 211 134 q 209 123 205 98 q 201 74 204 61 q 206 51 223 44 q 240 38 257 38 q 368 38 432 102 q 497 165 525 307 q 544 403 528 470 q 511 536 466 570 q 421 605 353 605 q 337 605 324 604 q 310 602 305 594 q 300 585 297 570 q 294 555 289 534 z"},"^":{"x_min":0,"x_max":381,"ha":381,"o":"m 182 653 q 194 653 201 640 q 226 597 244 564 q 262 531 280 500 q 299 468 325 427 q 325 419 319 414 q 313 409 307 409 q 286 429 264 452 q 242 475 224 496 q 205 517 194 530 q 182 543 182 543 q 182 543 170 530 q 159 517 140 496 q 122 475 100 452 q 78 429 57 409 q 51 409 44 414 q 37 419 37 427 q 64 468 82 500 q 101 531 120 564 q 138 597 163 640 q 170 653 182 653 z"},"0":{"x_min":0,"x_max":532,"ha":532,"o":"m 269 610 q 328 610 376 574 q 424 538 452 470 q 481 402 481 304 q 481 219 452 150 q 424 80 376 38 q 328 -3 269 -3 q 211 -3 161 33 q 111 69 81 138 q 51 207 51 304 q 51 368 68 424 q 86 479 116 521 q 146 563 186 586 q 225 610 269 610 z m 270 569 q 239 569 218 532 q 198 496 188 434 q 178 372 178 295 q 178 219 190 161 q 203 103 224 70 q 245 38 270 38 q 302 38 320 76 q 338 115 346 180 q 354 244 354 320 q 354 435 332 502 q 311 569 270 569 z"},"F":{"x_min":0,"x_max":512,"ha":512,"o":"m 247 642 q 258 642 286 642 q 315 643 352 644 q 389 645 427 646 q 465 646 496 647 q 528 648 544 648 q 542 618 542 588 q 542 559 542 531 q 542 524 542 517 q 542 510 542 504 q 540 502 532 500 q 524 499 519 499 q 509 499 507 507 q 500 548 485 576 q 470 605 428 605 l 352 605 q 336 605 323 604 q 310 602 305 594 q 300 585 297 570 q 294 555 289 534 l 254 355 q 253 351 264 348 q 276 345 291 345 l 339 345 q 366 345 382 350 q 398 355 410 370 q 421 385 433 413 q 436 421 444 421 q 458 421 461 416 l 425 229 q 421 225 407 225 q 396 225 396 232 q 395 267 388 278 q 382 289 376 292 q 369 296 352 298 q 334 299 308 299 q 296 299 280 298 q 264 297 252 294 q 241 291 240 285 l 213 142 q 212 138 212 134 q 211 130 210 126 q 205 101 202 82 q 199 63 202 50 q 203 44 216 40 q 229 36 244 34 q 259 33 265 32 q 267 27 264 14 q 262 1 258 -4 q 241 -2 216 0 q 191 1 166 2 q 140 3 121 3 q 93 3 56 1 q 18 -1 -9 -4 q -11 1 -8 14 q -5 27 -1 32 q 5 33 18 34 q 32 36 44 40 q 57 44 60 50 q 68 65 74 88 q 79 111 85 142 l 155 501 q 156 505 156 509 q 157 513 158 517 q 163 542 166 561 q 169 580 166 593 q 165 600 154 603 q 142 606 129 607 q 116 608 110 608 q 108 613 111 627 q 114 641 118 645 q 148 643 184 642 q 219 642 247 642 z"},"`":{"x_min":0,"x_max":243,"ha":243,"o":""},"k":{"x_min":0,"x_max":491,"ha":491,"o":"m 367 438 q 410 438 428 420 q 447 402 447 368 q 447 336 420 308 q 393 280 354 258 q 316 237 279 225 q 285 207 296 182 q 307 158 320 134 q 334 111 350 96 q 365 80 381 80 q 393 80 406 92 q 420 103 432 116 q 443 130 447 135 q 455 135 458 124 q 461 113 461 109 q 457 99 442 80 q 427 62 406 42 q 384 23 360 10 q 335 -4 313 -4 q 285 -4 262 18 q 238 40 220 74 q 201 107 188 142 q 175 177 167 203 q 161 176 154 141 q 148 106 142 74 q 135 42 131 21 q 127 0 127 0 q 120 -2 100 -4 q 80 -6 72 -6 q 64 -6 44 -4 q 24 -2 15 0 q 16 6 22 38 q 29 71 38 120 q 47 169 58 226 q 69 283 80 339 q 90 395 99 442 q 108 488 114 517 q 119 546 119 547 q 122 561 125 576 q 128 591 128 599 q 128 608 117 612 q 106 616 92 616 q 79 617 70 617 q 69 617 68 617 q 66 620 68 632 q 69 643 72 646 q 92 648 119 652 q 146 657 172 662 q 199 667 220 672 q 240 677 248 680 q 252 678 253 672 q 254 666 254 661 q 254 657 252 642 q 249 627 246 611 q 243 595 241 588 l 193 333 q 198 342 214 360 q 230 377 254 395 q 278 413 307 426 q 336 438 367 438 z m 294 365 q 272 365 251 350 q 230 334 213 312 q 196 290 186 270 q 175 251 175 242 q 206 242 240 254 q 273 266 297 287 q 321 308 321 334 q 321 342 316 354 q 311 365 294 365 z"},"u":{"x_min":0,"x_max":520,"ha":520,"o":"m 282 110 q 285 126 288 140 q 292 154 294 162 q 280 132 258 102 q 236 72 210 47 q 185 22 162 7 q 139 -8 123 -8 q 86 -8 74 12 q 62 31 62 76 q 62 92 66 116 q 69 140 74 164 q 78 187 80 199 q 86 229 91 250 q 96 272 100 302 q 101 305 102 318 q 104 330 104 334 q 104 341 101 348 q 98 354 90 354 q 80 354 64 340 q 48 327 36 312 q 23 298 21 295 q 16 295 12 306 q 7 317 7 321 q 13 333 30 352 q 47 371 69 391 q 91 411 114 424 q 138 438 158 438 q 187 438 206 420 q 224 403 224 369 q 224 359 220 339 q 217 319 215 311 q 214 307 210 288 q 207 270 202 248 q 198 226 195 210 q 192 194 192 194 q 191 188 188 172 q 186 156 184 140 q 181 125 181 120 q 181 113 184 106 q 188 100 196 100 q 207 100 226 124 q 244 148 264 186 q 285 225 303 272 q 321 318 330 363 l 344 431 q 352 433 371 435 q 390 437 398 437 q 406 437 426 435 q 447 433 456 431 l 399 129 q 398 125 397 113 q 396 101 396 97 q 396 90 399 83 q 402 76 409 76 q 420 76 436 90 q 452 104 465 118 q 478 133 479 136 q 484 136 488 125 q 492 114 492 109 q 486 97 468 78 q 451 59 428 39 q 405 19 381 6 q 357 -8 337 -8 q 313 -8 294 8 q 275 25 275 62 q 275 67 277 80 q 279 94 282 110 z"},"]":{"x_min":0,"x_max":361,"ha":361,"o":"m 235 713 q 238 713 240 712 q 254 706 254 690 l 254 -360 q 254 -361 254 -362 q 253 -363 253 -365 q 250 -381 235 -383 q 116 -383 35 -398 q 29 -396 29 -390 q 29 -387 31 -379 q 34 -366 39 -364 q 52 -358 73 -353 q 94 -348 123 -343 q 133 -341 139 -340 q 145 -339 149 -338 l 149 668 q 146 669 141 670 q 136 671 129 672 q 58 684 39 694 q 39 694 38 694 q 38 694 38 695 q 29 713 29 720 q 29 721 30 722 q 30 722 30 723 q 32 729 35 729 q 75 722 125 718 q 175 713 235 713 z"},"U":{"x_min":0,"x_max":675,"ha":675,"o":"m 229 640 q 258 640 294 642 q 331 643 358 646 q 360 642 358 628 q 356 615 351 610 q 345 610 332 608 q 318 607 306 604 q 293 600 289 593 q 281 578 276 556 q 270 533 264 501 l 230 322 q 220 273 216 234 q 212 194 220 155 q 229 112 251 92 q 273 73 298 68 q 323 62 340 62 q 376 62 414 86 q 453 111 486 164 q 518 217 534 302 l 566 468 q 572 500 576 536 q 580 572 577 587 q 575 597 562 602 q 548 606 534 608 q 519 610 513 610 q 511 615 514 628 q 516 642 520 646 q 552 643 576 642 q 601 640 632 640 q 662 640 687 642 q 712 645 740 646 q 742 642 740 628 q 738 615 733 610 q 727 610 712 608 q 696 607 680 602 q 665 598 659 587 q 651 572 640 536 q 628 501 622 469 l 585 279 q 566 180 518 116 q 471 52 409 22 q 347 -9 281 -9 q 224 -9 177 12 q 130 33 106 77 q 87 113 84 166 q 82 218 97 294 l 137 501 q 138 505 138 509 q 139 513 140 517 q 145 542 148 561 q 151 580 148 593 q 147 600 136 604 q 125 607 112 608 q 99 610 93 610 q 91 615 94 628 q 96 642 100 646 q 126 643 164 642 q 201 640 229 640 z"},"o":{"x_min":0,"x_max":444,"ha":444,"o":"m 267 438 q 308 438 340 425 q 373 412 392 380 q 411 348 411 290 q 411 237 388 184 q 364 132 326 89 q 288 46 243 20 q 198 -6 154 -6 q 93 -6 54 32 q 15 69 15 139 q 15 192 38 245 q 60 298 97 342 q 134 385 178 412 q 223 438 267 438 z m 256 399 q 229 399 207 372 q 185 344 170 301 q 154 258 146 210 q 137 162 137 122 q 137 111 138 90 q 140 68 147 50 q 154 33 170 33 q 197 33 219 60 q 241 88 256 131 q 272 174 280 220 q 289 267 289 305 q 289 321 288 343 q 286 365 280 382 q 273 399 256 399 z"},"N":{"x_min":0,"x_max":698,"ha":698,"o":"m 215 640 q 239 640 266 642 q 294 643 316 646 q 324 618 346 572 q 368 527 399 472 q 430 416 464 357 q 498 298 529 242 q 531 247 534 260 q 537 272 539 282 l 574 465 q 578 484 582 510 q 586 537 588 560 q 590 583 588 590 q 586 599 571 604 q 556 608 540 610 q 525 611 519 611 q 518 611 520 626 q 522 640 526 647 q 557 646 580 643 q 604 640 635 640 q 665 640 694 643 q 724 646 752 647 q 753 643 750 630 q 748 618 742 610 q 739 610 722 609 q 705 608 687 604 q 669 599 663 588 q 660 581 653 559 q 646 537 640 512 q 633 486 629 468 l 565 136 q 557 93 553 65 q 549 37 543 -1 q 541 -3 531 -4 q 521 -5 519 -5 q 513 -5 507 2 q 501 8 496 18 l 220 507 l 152 153 q 147 127 144 98 q 142 70 143 59 q 145 50 160 44 q 176 38 193 36 q 210 33 213 33 q 216 26 213 14 q 210 1 208 -4 q 181 -2 152 1 q 124 4 94 4 q 63 4 38 1 q 14 -2 -18 -4 q -20 3 -16 18 q -11 32 -10 32 q -4 32 12 35 q 29 38 46 44 q 62 49 67 58 q 74 69 83 98 q 92 128 97 156 q 109 220 120 274 q 131 329 142 384 q 153 438 165 502 q 173 542 172 559 q 171 576 165 590 q 162 597 150 601 q 139 605 127 608 q 115 610 109 610 q 107 610 107 618 q 107 626 109 635 q 111 644 114 646 q 134 645 159 642 q 184 640 215 640 z"},"+":{"x_min":0,"x_max":529,"ha":529,"o":"m 235 463 q 243 470 258 472 q 273 474 276 474 q 292 474 292 465 l 291 269 l 490 269 q 495 269 497 264 q 499 260 499 255 q 499 239 495 230 q 491 220 485 212 l 292 212 l 292 19 q 283 13 268 10 q 254 8 246 8 q 235 8 235 16 l 235 212 l 36 212 q 30 212 30 228 q 30 231 32 246 q 34 260 40 269 l 234 269 z"},"G":{"x_min":0,"x_max":662,"ha":662,"o":"m 433 651 q 478 651 531 642 q 584 632 623 623 q 623 619 622 598 q 620 578 618 552 q 615 527 613 507 q 611 487 610 482 q 609 478 603 474 q 597 469 589 469 q 580 469 577 473 q 576 487 570 510 q 563 532 547 555 q 531 578 504 594 q 476 609 433 609 q 369 609 314 565 q 259 521 225 443 q 191 365 191 262 q 191 228 199 189 q 207 150 226 115 q 244 80 276 58 q 308 36 356 36 q 381 36 394 40 q 407 45 412 49 q 415 51 418 54 q 421 58 422 65 q 424 73 428 94 q 431 115 436 142 q 441 168 445 191 q 445 192 445 193 q 448 207 450 216 q 451 226 450 241 q 449 253 436 259 q 424 265 410 266 q 397 268 391 268 q 389 268 389 276 q 389 284 392 293 q 394 302 397 304 q 432 303 469 300 q 506 298 540 298 q 569 298 594 300 q 619 303 647 304 q 648 294 645 281 q 642 268 640 268 q 635 268 619 264 q 603 260 594 255 q 590 252 584 240 q 578 227 575 213 q 570 186 564 154 q 558 121 553 96 q 552 92 552 87 q 552 82 553 77 q 553 69 553 67 q 552 59 540 50 q 527 40 517 35 q 478 16 435 4 q 392 -7 329 -7 q 258 -7 206 18 q 153 42 119 82 q 85 123 68 172 q 51 221 51 270 q 51 362 86 432 q 120 503 177 552 q 234 601 301 626 q 368 651 433 651 z"},"q":{"x_min":0,"x_max":443,"ha":443,"o":"m 349 -206 q 342 -206 326 -206 q 309 -205 293 -205 q 277 -205 270 -205 q 227 -205 188 -208 q 148 -212 121 -215 q 120 -214 120 -206 q 120 -199 121 -192 q 122 -184 125 -184 q 146 -182 164 -172 q 182 -162 186 -143 l 229 82 q 219 65 198 44 q 176 23 149 8 q 122 -7 93 -7 q 64 -7 46 10 q 28 28 20 56 q 11 83 11 111 q 11 170 38 228 q 64 286 108 334 q 152 381 206 410 q 259 438 314 438 q 340 438 365 434 q 390 429 409 417 l 355 136 q 355 135 351 116 q 347 96 342 66 q 336 35 330 2 q 323 -32 318 -62 q 312 -92 308 -111 q 305 -130 305 -130 q 304 -135 304 -140 q 303 -145 303 -150 q 303 -162 312 -170 q 321 -177 353 -177 q 356 -177 354 -190 q 353 -204 349 -206 z m 280 333 q 282 342 281 354 q 280 366 274 376 q 269 385 256 385 q 232 385 210 365 q 188 345 171 311 q 154 277 144 236 q 134 195 134 153 q 134 113 144 96 q 154 79 167 79 q 180 79 195 96 q 210 113 225 141 q 240 169 252 202 q 264 236 270 269 q 274 289 276 302 q 277 314 280 333 z"},"d":{"x_min":0,"x_max":475,"ha":475,"o":"m 324 547 q 326 561 330 576 q 333 591 333 599 q 333 608 322 612 q 311 616 298 616 q 284 617 275 617 q 274 617 273 617 q 271 620 272 632 q 274 643 277 646 q 297 648 324 652 q 351 657 378 662 q 404 667 424 672 q 445 677 453 680 q 457 678 458 672 q 459 666 459 661 q 459 657 457 644 q 455 631 452 616 q 449 600 446 588 l 354 129 q 353 126 352 114 q 350 101 350 97 q 350 90 353 83 q 356 76 363 76 q 374 76 390 90 q 406 104 419 118 q 432 133 433 136 q 438 136 442 125 q 446 114 446 109 q 440 97 422 78 q 405 59 382 39 q 359 19 335 6 q 311 -8 291 -8 q 259 -8 242 16 q 238 23 234 32 q 230 41 230 57 q 230 63 232 76 q 235 88 236 94 q 226 76 204 52 q 181 28 152 10 q 124 -7 94 -7 q 53 -7 32 28 q 10 63 10 112 q 10 173 36 228 q 61 284 102 329 q 144 374 192 402 q 241 431 286 438 q 290 439 297 438 q 301 438 303 438 z m 280 345 q 280 367 274 376 q 268 385 255 385 q 230 385 208 364 q 186 344 169 310 q 152 275 142 233 q 133 191 133 148 q 133 113 142 96 q 152 79 168 79 q 180 79 196 98 q 212 117 227 147 q 242 177 254 211 q 266 245 270 274 q 270 274 272 289 q 275 304 278 322 q 280 339 280 345 z"},"1":{"x_min":0,"x_max":532,"ha":532,"o":"m 218 142 l 218 471 q 218 503 214 512 q 209 522 197 522 q 190 522 166 516 q 143 509 127 500 q 114 507 114 519 q 114 519 114 520 q 114 523 114 526 q 114 529 116 530 q 172 554 222 576 q 273 599 306 614 q 339 628 340 628 l 342 628 q 347 628 350 620 q 353 613 354 609 q 354 609 350 587 q 345 565 345 518 l 345 142 q 345 111 346 88 q 347 65 353 50 q 356 44 368 40 q 381 36 395 34 q 409 33 415 32 q 419 27 418 14 q 418 1 415 -4 q 387 -1 350 1 q 312 3 281 3 q 250 3 213 1 q 176 -1 147 -4 q 144 1 144 14 q 143 27 147 32 q 154 33 168 34 q 182 36 195 40 q 208 44 210 50 q 216 65 217 88 q 218 111 218 142 z"},"5":{"x_min":0,"x_max":532,"ha":532,"o":"m 271 413 q 319 413 364 388 q 409 362 438 320 q 466 277 466 225 q 466 173 444 130 q 422 88 385 58 q 348 27 302 10 q 257 -6 210 -6 q 163 -6 128 6 q 93 18 78 30 q 73 37 70 51 q 66 65 66 72 q 66 89 79 106 q 92 124 117 124 q 137 124 152 108 q 168 92 180 78 q 194 62 212 48 q 230 35 249 35 q 295 35 318 72 q 341 108 341 174 q 341 219 319 252 q 297 284 266 302 q 234 320 206 320 q 160 320 142 315 q 124 310 116 307 q 112 307 109 314 q 106 322 106 326 q 106 327 111 352 q 116 378 124 416 q 131 455 138 496 q 146 538 152 572 q 159 605 161 620 l 335 620 q 366 620 390 624 q 415 629 425 631 q 429 630 434 628 q 438 625 438 617 q 438 609 430 588 q 422 568 414 549 q 405 530 401 523 q 363 519 325 518 q 287 517 255 516 q 232 515 214 515 q 197 515 189 515 q 188 511 184 493 q 181 475 177 454 q 173 432 170 416 q 167 400 167 400 q 185 405 214 409 q 244 413 271 413 z"}}}
